<?xml version="1.0" standalone="no"?>
<!DOCTYPE svg PUBLIC "-//W3C//DTD SVG 20010904//EN"
 "http://www.w3.org/TR/2001/REC-SVG-20010904/DTD/svg10.dtd">
<svg version="1.0" xmlns="http://www.w3.org/2000/svg"
 width="670.000000pt" height="439.000000pt" viewBox="0 0 670.000000 439.000000"
 preserveAspectRatio="xMidYMid meet">

<g transform="translate(0.000000,439.000000) scale(0.100000,-0.100000)"
fill="#000000" stroke="none">
<path d="M2286 3941 c-3 -5 -6 -283 -6 -617 1 -335 1 -613 0 -617 0 -5 -22 11
-49 35 -56 50 -157 112 -221 134 -25 9 -53 20 -62 25 -69 36 -384 54 -528 30
-351 -58 -646 -318 -771 -677 -36 -105 -69 -298 -69 -408 0 -74 27 -270 46
-341 11 -39 63 -171 89 -224 56 -115 194 -276 306 -358 57 -42 174 -105 219
-118 14 -4 30 -11 35 -15 6 -4 44 -15 85 -24 41 -9 94 -21 118 -26 80 -19 239
-12 371 16 67 14 130 29 139 33 10 5 52 26 96 47 43 22 105 60 137 86 33 27
60 48 62 48 2 0 3 -44 2 -97 l0 -98 250 0 250 0 0 1585 0 1585 -247 3 c-140 1
-249 -2 -252 -7z m-413 -1485 c191 -61 335 -212 408 -431 33 -99 33 -276 0
-385 -63 -205 -190 -346 -382 -422 -259 -103 -567 -15 -719 207 -70 102 -101
192 -120 345 -14 116 13 259 70 379 76 158 236 285 404 320 92 19 259 12 339
-13z"/>
<path d="M5100 2944 c-145 -15 -186 -27 -316 -91 -77 -37 -191 -134 -238 -202
-16 -22 -32 -41 -37 -41 -4 0 -22 20 -39 45 -94 137 -258 245 -414 274 -77 14
-255 14 -332 0 -99 -18 -195 -70 -275 -149 -40 -38 -74 -70 -76 -70 -3 0 -3
48 -2 108 l3 107 -245 0 -244 0 0 -1075 0 -1075 247 -3 247 -2 4 672 c2 491 7
685 16 718 56 206 202 322 402 321 190 -2 299 -73 372 -241 l32 -75 3 -697 3
-698 234 0 234 0 3 678 3 677 27 72 c44 120 117 206 213 253 61 30 193 40 280
23 86 -18 115 -33 178 -92 80 -74 104 -122 133 -259 11 -53 14 -199 14 -709
l0 -643 245 0 245 0 0 688 c0 402 -5 716 -10 757 -28 192 -113 361 -254 500
-156 155 -294 213 -546 228 -41 3 -91 3 -110 1z"/>
</g>
</svg>
