<?xml version="1.0" encoding="utf-8"?>
<!-- Generator: Adobe Illustrator 28.3.0, SVG Export Plug-In . SVG Version: 6.00 Build 0)  -->
<svg version="1.1" id="Capa_1" xmlns="http://www.w3.org/2000/svg" xmlns:xlink="http://www.w3.org/1999/xlink" x="0px" y="0px"
	 viewBox="0 0 1080 1080" style="enable-background:new 0 0 1080 1080;" xml:space="preserve">
<style type="text/css">
	.st0{fill:none;stroke:#000000;stroke-width:0.25;stroke-miterlimit:10;}
	.st1{stroke:#000000;stroke-width:0.25;stroke-miterlimit:10;}
</style>
<g>
	<path class="st0" d="M544.16,120.62c5.94,1.55,11.66,3.06,17.38,4.54c6,1.56,11.49-0.13,16.89-2.91c0.96-0.5,2.65-0.59,3.47,0
		c17.06,12.35,28.19,28.98,30.19,51.58c2.45,27.55,1.61,55.18,0.77,82.79c-0.36,11.76-0.92,23.55-4.13,34.88
		c-5.75,20.28-15.08,38.29-29.5,52.95c-9.35,9.5-20.38,15.21-32.99,17.26c-5.3,0.86-10.65,1.28-16.1,1.92
		c-0.35-2.6,1.2-5.58-2.65-6.34c0,2.02,0,3.84,0,5.9c-8.51,0.24-16.81-1.52-24.92-4.36c-19.76-6.92-36.87-18.22-49.23-36.68
		c-8.76-13.1-12.96-28.3-15.7-44.02c-3.96-22.73-6.49-45.62-5.38-68.79c0.57-11.73,1.86-23.29,7.63-33.87
		c4.15-7.61,6.89-16.02,7.09-25.09c0.04-1.78-0.21-3.56-0.33-5.45c10.77,0.05,20.53-2.53,27.06-12.84c0,2.57-0.34,5.27,0.06,7.85
		c1.35,8.6,7.66,12.99,15.49,11.12c9.27-2.21,14.91-9.3,19.9-17.3c0.68-1.09,1.26-2.24,1.88-3.34
		C524.25,136.02,533.59,132.04,544.16,120.62z M538.27,277.7c10.49,0.06,17.04-5.31,19.06-13.42c1.18-4.74,0.67-9.36-0.82-13.92
		c-4.23-12.96-8.41-25.94-12.74-38.87c-0.34-1-1.87-2.42-2.47-2.23c-1.03,0.32-2.09,1.62-2.54,2.77c-0.39,1-0.13,2.43,0.16,3.57
		c1.27,4.88,2.54,9.76,4.02,14.57c2.65,8.59,5.78,17.02,8.1,25.7c2.24,8.39-2.65,14.69-10.65,14.56c-4.85-0.08-8.72-2.51-12.31-5.84
		c-0.94-0.87-2.53-0.93-3.82-1.37c-0.38,1.41-1.29,2.97-1,4.19c0.41,1.75,1.37,4.02,2.69,4.71
		C530.69,274.64,535.69,276.57,538.27,277.7z M500.47,193.73c3.03,0,6.1,0.33,9.06-0.14c1.49-0.23,3.75-1.73,3.93-2.96
		c0.24-1.59-0.88-3.93-2.09-5.12c-1.4-1.37-3.48-2.33-5.38-2.64c-12.62-2.01-24.99-1.07-36.58,5.2c-2.3,1.24-4.25,3.49-6.01,5.62
		c-1.53,1.86-2.32,4.32-0.54,6.6c1.74,2.22,3.91,1.46,5.81,0.28C478.57,194.41,489.44,193.69,500.47,193.73z M570.99,178.4
		c-2.02,0-4.14-0.43-6.04,0.09c-4.26,1.17-8.53,2.53-12.57,4.39c-2.4,1.11-3.18,4.22-2.01,6.56c0.64,1.28,3.13,1.55,4.84,2.08
		c0.71,0.22,1.56-0.01,2.33-0.14c12.11-1.98,24.19-4,35.64,3.27c0.96,0.61,3.27,0.06,4.12-0.85c0.84-0.9,1.32-3.51,0.72-4.4
		c-1.71-2.56-3.72-5.25-6.2-6.76C585.41,178.76,578.22,178.21,570.99,178.4z M533.89,311.88c5.54-0.67,11.18-0.84,16.59-2.14
		c4.71-1.14,9.23-3.39,13.7-5.48c1.86-0.87,2.89-2.99,1.71-5.19c-1.24-2.31-3.08-1.73-4.96-0.66c-2.26,1.28-4.54,2.74-6.97,3.37
		c-15.61,4.08-31.11,4.99-46.12-2.85c-1.74-0.91-3.58-0.81-4.18,1.31c-0.36,1.25,0.13,3.24,0.93,4.29c0.92,1.22,2.53,1.93,3.95,2.58
		C516.63,310.83,525.19,311.46,533.89,311.88z M498.16,223.29c-0.5-2.23-0.71-4.59-1.57-6.63c-1.22-2.87-2.82-5.7-6.41-5.4
		c-3.53,0.3-6.18,2.53-6.69,6.07c-0.56,3.93-0.45,8.17,0.32,12.05c0.59,3,3.2,4.98,6.27,5.21c3.09,0.24,5.05-1.97,6.29-4.62
		C497.29,227.99,497.56,225.63,498.16,223.29z M571.02,233.47c2.24-1.23,4.21-1.75,5.42-3.09c4.05-4.47,3.91-13.26-0.02-17.96
		c-3.07-3.68-7.26-3.47-9.98,0.51c-2.8,4.1-3.24,11.99-0.47,16.14C567.15,230.84,569.2,231.93,571.02,233.47z M535.59,328.55
		c4.05-1.6,7.94-2.89,11.58-4.76c0.88-0.45,1.1-2.79,1.21-4.3c0.02-0.28-2.19-1.34-2.99-1c-6.61,2.84-13.13,3.16-19.86,0.35
		c-1-0.42-2.63,0.91-3.97,1.44c0.62,1.28,0.96,3.27,1.91,3.7C527.29,325.72,531.29,326.98,535.59,328.55z M486.1,328.53
		c0.12-0.04,0.25-0.08,0.37-0.12c-0.41-1.39-0.79-2.79-1.3-4.14c-0.05-0.12-1.3,0.02-1.34,0.2c-0.36,1.66-0.66,3.35-0.8,5.05
		c-0.05,0.65,0.29,1.41,0.63,2c0.26,0.44,0.95,1.02,1.21,0.91c0.5-0.22,1.03-0.84,1.17-1.4C486.24,330.25,486.1,329.37,486.1,328.53
		z M495.31,329.64c-1.71,2.61-1.17,6.06,1.34,8.59C498.43,334.62,497.96,331.61,495.31,329.64z M472.71,317.95
		c-3.53,2.5-2.73,4.95-1.91,7.32c0.14,0.39,0.99,0.86,1.31,0.73c0.48-0.19,1.12-0.9,1.11-1.38
		C473.2,322.65,472.95,320.69,472.71,317.95z M479.5,308.34c-2.57,3.31-1.13,5.59,0.66,8.35
		C481.86,313.52,482.04,311.03,479.5,308.34z M514.98,352.28c0.51-0.02,1.02-0.05,1.53-0.07c0.13-1.82,0.42-3.64,0.3-5.44
		c-0.04-0.64-1.09-1.19-1.68-1.79c-0.48,0.79-1.4,1.63-1.34,2.37C513.94,349.02,514.56,350.64,514.98,352.28z M539.52,347.31
		c-0.66,1-1.25,1.49-1.22,1.92c0.14,1.84,0.43,3.67,0.8,5.47c0.02,0.12,1.6,0.04,1.6-0.02c0.12-1.71,0.21-3.44,0.1-5.16
		C540.77,348.93,540.17,348.39,539.52,347.31z M457.97,297.63c-2.95,2.34-1.78,4.71-1.19,6.92c0.07,0.27,1.08,0.24,1.66,0.35
		c0.03-2.03,0.08-4.07,0.07-6.1C458.51,298.48,458.23,298.16,457.97,297.63z M471.99,311.85c0-2.75,0-5.28,0-8.37
		C468.64,306.57,468.78,309.04,471.99,311.85z M549.42,342.27c-3.08,2.22-1.79,4.64-1.01,6.9c0.13,0.38,1.04,0.45,1.59,0.66
		c0.11-1.91,0.28-3.82,0.3-5.73C550.3,343.62,549.84,343.12,549.42,342.27z M561.23,338.5c-2.27,2.48-2.25,3.52,0.13,7.17
		C563.66,343.46,563.61,340.76,561.23,338.5z M450.84,298.37c0.09-0.89,0.29-1.51,0.18-2.05c-0.37-1.79-0.85-3.54-1.28-5.31
		c-0.51,0.32-1.49,0.72-1.46,0.95c0.29,1.99,0.75,3.96,1.22,5.92C449.54,298.06,450.08,298.1,450.84,298.37z M461.9,319.14
		c-0.83-1.56-1.51-2.83-2.19-4.1c-0.46,1.02-1.37,2.1-1.28,3.05c0.14,1.45,0.99,2.81,1.54,4.21
		C460.53,321.38,461.09,320.45,461.9,319.14z M504.35,288.24c-0.42-0.06-0.83-0.12-1.25-0.19c-0.34,2.39-0.68,4.78-1.11,7.88
		C505.57,293.58,506.1,291.05,504.35,288.24z M535.46,294.05c1.23-2.34,1.97-4.44,0.23-6.61c-0.16-0.19-1.48,0.23-1.73,0.69
		C532.78,290.39,533.05,292.38,535.46,294.05z M487.48,343.43c0.91,1.4,1.66,2.54,2.4,3.68c0.5-0.79,1.51-1.68,1.39-2.34
		c-0.25-1.47-1.07-2.82-1.65-4.22C489,341.38,488.38,342.21,487.48,343.43z M528.28,343.47c-0.64,0.03-1.29,0.06-1.93,0.09
		c0,2.09-0.06,4.18,0.06,6.26c0.02,0.38,0.76,0.97,1.18,0.99c0.36,0.01,1.07-0.67,1.07-1.03
		C528.63,347.68,528.43,345.57,528.28,343.47z M476.38,340.9c1.86-2.93,1.52-5.6-0.97-7.78
		C474.06,335.94,474.26,338.32,476.38,340.9z M572.14,286.4c-1.72,3.16-1.03,5.57,1.92,6.67
		C574.56,290.43,574.94,287.95,572.14,286.4z M500.83,355.46c2.16-3.14,1.98-4.52-0.64-6.62
		C498.03,351.2,498.93,353.19,500.83,355.46z M571.43,336.3c0.06-2.22,1.24-4.62-1.46-6.14
		C567.74,333.93,568.07,335.37,571.43,336.3z M452.25,306.64c-0.46-0.07-0.92-0.15-1.38-0.22c-2.34,1.31-2.03,3.31-0.96,5.35
		c0.19,0.36,1.06,0.31,1.62,0.45C451.77,310.36,452.01,308.5,452.25,306.64z M555.89,293.79c0.65-0.16,1.3-0.32,1.95-0.49
		c-0.45-2.27-0.89-4.54-1.34-6.82c-0.6,0.13-1.19,0.27-1.79,0.4C555.1,289.19,555.5,291.49,555.89,293.79z M442.6,286.46
		c2.59-2.55,1.23-4.45-0.01-6.83C440.21,282.08,440.45,284.09,442.6,286.46z M588.37,325.67c0.48,0.1,0.96,0.21,1.44,0.31
		c0.47-1.6,1.09-3.17,1.3-4.81c0.07-0.51-0.98-1.19-1.52-1.79c-0.4,0.58-1.09,1.13-1.16,1.76
		C588.25,322.63,588.37,324.16,588.37,325.67z M464.7,334.53c0.72,0.08,1.44,0.15,2.16,0.23c0.06-1.83,0.14-3.66,0.1-5.49
		c0-0.07-1.69-0.21-1.69-0.17C465.02,330.9,464.87,332.72,464.7,334.53z M505.51,339.61c-1.88,2.44-1.68,4.22,0.6,5.86
		C508.48,343.31,507.97,341.55,505.51,339.61z M545.92,286.74c0.36,2.83,0.6,4.78,0.85,6.73c0.56-0.13,1.56-0.13,1.62-0.4
		C548.88,291.01,549.52,288.82,545.92,286.74z M578.33,325.13c0.37-0.01,0.74-0.02,1.11-0.03c1.29-2.1,1.6-4.08-1.11-6.39
		C578.33,321.28,578.33,323.21,578.33,325.13z M524.63,294.29c1.02-2.39,3.1-4.14,0.66-6.53
		C522.76,289.64,522.24,291.49,524.63,294.29z M603.74,294.76c3.75-2.47,3.94-3.67,1.23-6.37
		C604.51,290.76,604.13,292.76,603.74,294.76z M583.22,312.72c0.45,0.07,0.89,0.14,1.34,0.22c2.05-1.79,1.57-3.78,0.55-5.82
		c-0.42-0.05-0.84-0.1-1.26-0.15C583.63,308.89,583.42,310.81,583.22,312.72z M515.17,288.51c-0.39-0.13-0.78-0.25-1.18-0.38
		c-1.87,1.61-3.22,3.28,0.14,6.36C514.56,292.03,514.86,290.27,515.17,288.51z M566.18,291.89c1.32-3.13,1.21-3.79-0.88-5.21
		C563.71,290.01,563.75,290.22,566.18,291.89z M495.29,294.02c0.58,0.19,1.16,0.39,1.74,0.58c0.45-1.5,0.91-3,1.27-4.52
		c0.01-0.06-1.07-0.41-1.65-0.63C496.2,290.98,495.74,292.5,495.29,294.02z"/>
	<g>
		<path class="st1" d="M884.99,831.49c-5.82-0.42-11.63-0.91-17.45-1.23c-15.46-0.85-30.93-1.58-46.39-2.44
			c-20.5-1.14-40.99-2.39-61.49-3.53c-10.42-0.58-20.85-1.05-31.27-1.55c-19.83-0.95-39.66-1.91-59.5-2.84
			c-11.54-0.54-23.09-0.99-34.63-1.56c-17.82-0.88-35.63-1.84-53.44-2.74c-12.76-0.65-25.52-1.25-38.7-1.89
			c0.18,5.66-1.28,10.89,1.54,15.94c1.11,1.99,1.35,4.56,1.93,6.88c0.77,3.06,0.14,5.53-2.91,6.94c2.69,7,1.46,14.13,0.92,21.23
			c-0.77,10.27-1.47,20.55-2.26,30.82c-0.76,9.8-1.62,19.58-2.39,29.38c-0.8,10.29-1.52,20.59-2.32,30.88
			c-1.06,13.79-2.13,27.58-3.26,41.36c-0.63,7.74-1.16,15.5-2.17,23.18c-1.57,12-7.74,20.72-17.38,26.56
			c-13.3,8.05-27.65,11.38-42.84,11.2c-16.03-0.19-31.68-2-46.12-10.34c-9.44-5.45-17.16-12.69-19.28-24.63
			c-1.33-7.48-1.74-15.16-2.35-22.77c-1.15-14.15-2.17-28.32-3.2-42.49c-0.77-10.52-1.43-21.06-2.21-31.58
			c-0.95-12.83-2-25.65-2.96-38.48c-0.89-11.99-1.77-23.98-2.55-35.98c-0.45-6.86,3.14-11.62,7.84-16.09
			c-13.43-7.81-27.9-11.11-42.63-15.11c-0.49,6.56-1.01,13.02-1.44,19.48c-1.09,16.36-2.16,32.72-3.18,49.09
			c-0.2,3.27-0.24,6.57-0.2,9.85c0.08,7.99-3.16,14.2-9.74,17.26c-7.12,3.31-14.59,6.28-22.18,7.72
			c-15.27,2.91-30.55,1.9-45.42-3.39c-2.32-0.83-4.59-1.91-6.78-3.1c-6.88-3.74-9.86-9.95-10.27-18.19
			c-0.67-13.71-1.78-27.39-2.58-41.09c-0.78-13.47-1.42-26.94-2.1-40.41c-0.27-5.46-0.5-10.93-0.69-16.4
			c-0.07-1.9-0.69-2.76-2.6-2.88c-9.4-0.61-18.79-1.36-28.18-2.09c-9.05-0.71-18.1-1.46-27.15-2.19c0-1.95,0-3.9,0-5.84
			c11.4,0.85,22.8,1.72,34.21,2.54c7.59,0.54,15.19,1.01,23.71,1.57c-4.03-2.63-7.25-4.8-10.53-6.86
			c-16.15-10.12-23.07-25.73-23.92-45.5c-0.88-20.51,3.69-39.93,9.32-59.1c5.3-18.07,11.35-35.87,17.09-53.78
			c1.68-5.24,1.71-5.23-2.52-8c-5.35-3.49-6.16-5.79-3.41-11.94c7.25-16.24,15.07-32.2,21.91-48.63
			c9.4-22.6,18.06-45.57,27.13-68.33c7.49-18.82,15.66-37.26,26.13-54.42c8.43-13.83,20.08-23.03,33.95-29.7
			c22.99-11.06,46.88-19.27,70.74-27.65c4.88-1.71,9.69-3.67,14.45-5.73c1.09-0.47,2.27-1.59,2.74-2.73
			c4.04-9.98,9.81-18.45,17.89-25.03c1.93-1.57,2.1-8.67,0.21-11.01c-10.33-12.79-16.33-27.9-20.45-44.07
			c-0.27-1.05-1.49-2.54-2.32-2.59c-11.21-0.61-19.09-7.04-24.87-16.82c-6.91-11.69-10.33-24.45-8.04-38.37
			c1.62-9.81,7.41-15.72,16.34-18.01c0.39-0.1,0.8-0.16,1.62-0.33c-0.67-7.11-1.21-13.99-1.98-20.84
			c-2.05-18.36-3.6-36.76-2.99-55.26c0.27-8.13,3.6-15.17,8.43-21.38c5.04-6.49,9.97-13.08,15.02-19.55
			c12.85-16.45,29.35-26.19,48.54-30.98c7.93-1.98,15.89-2.18,23.98-1.38c2.48,0.24,5.12-1.19,7.67-1.9
			c14.05-3.91,28.13-4.2,41.31,2.75c6.86,3.62,13.82,5.64,21.12,7.1c9.3,1.86,17.1,6.23,22.42,15.1c0.7,1.16,2.23,1.81,3.47,2.5
			c4.27,2.36,8.82,4.22,12.81,7.03c8.06,5.68,10.91,14.39,8,24.4c-0.98,3.35,0.47,5.99,0.57,8.94c0.27,7.85,0.32,15.75-0.17,23.59
			c-0.73,11.74-1.97,23.44-3.05,35.14c-0.48,5.18-1.14,10.35-1.69,15.52c-0.17,1.55-0.25,3.11-0.3,3.75
			c3.49,1.04,6.82,1.41,9.55,3.01c3.97,2.33,5.75,6.9,6.45,11.46c2.66,17.43-0.39,33.8-9,48.77c-1.95,3.4-4.41,7.38-9.22,5.63
			c-3.29,24.96-12.27,46.95-27.68,65.24c4.41,6.23,9.03,12.15,12.94,18.58c1.69,2.78,3.48,4.21,6.27,5.02
			c27.46,7.96,54.88,16.12,82.36,23.99c20.04,5.74,34.76,18.65,44.11,38.45c9.15,19.37,17.59,39.13,26.52,58.63
			c13.15,28.72,26.34,57.42,39.76,85.99c2.97,6.33,2.75,9.42-2.7,14.97c-2.13,2.16-2.1,3.64-1.14,6.12
			c6.78,17.51,13.5,35.05,20.17,52.61c4.34,11.41,8.19,22.97,9.87,35.3c2.02,14.84-0.44,28.97-6.52,42.06
			c-10.15,21.82-20.99,43.28-31.75,64.76c-5.01,9.99-10.54,19.67-16,29.81c3.68,0.29,7.17,0.64,10.67,0.82
			c15.68,0.82,31.37,1.54,47.06,2.39c16.35,0.88,32.7,1.88,49.05,2.81c1.57,0.09,3.14,0.07,4.71,0.1
			C884.99,827.11,884.99,829.3,884.99,831.49z M248.82,599.79c9.38,4.13,18.36,8.09,27.36,12.04c19.68,8.63,39.55,16.5,60.72,19.89
			c9.78,1.57,10.3,1.61,14.07-8c0.22-0.56,0.51-1.08,0.72-1.65c4.07-11.17,9.17-21.65,9.44-34.45c0.72-34.1,0.57-68.03-6.4-101.52
			c-2.69-12.92-6.04-25.56-12.99-36.69c-1.32-2.11-3.15-3.87-4.26-6.08c-0.53-1.05-0.3-3.07,0.35-4.08
			c0.35-0.55,2.35-0.15,3.48,0.25c0.76,0.27,1.45,1.19,1.89,1.99c3.44,6.2,7.51,12.12,10.08,18.72
			c6.72,17.3,10.05,35.65,11.46,54.27c1.28,16.82,1.85,33.72,2.16,50.59c0.33,17.49-0.61,35.02,0.1,52.48
			c0.57,14.02,2.87,27.95,4.24,41.93c1.34,13.63,3.44,27.28,3.42,40.92c-0.03,14.25-2.08,28.51-3.51,42.73
			c-0.29,2.91,0.13,4.33,2.73,5.45c11.08,4.75,21.98,10.02,33.13,14.54c18.19,7.37,37.17,11.21,56.42,13.5
			c10.56,1.26,21.09,2.67,31.11,6.69c4.59,1.84,8.89,4.51,13.47,6.37c7.2,2.92,14.69,5.07,21.73,8.37c3.63,1.7,6.53,5.2,9.81,7.81
			c0.8,0.64,1.75,1.4,2.67,1.45c21.84,1.27,43.68,2.55,65.53,3.63c18.27,0.9,36.54,1.58,54.82,2.26c1.49,0.06,3.2-0.25,4.46-1.05
			c4.34-2.74,8.69-5.54,12.74-8.75c8.94-7.1,14.38-16.27,13.17-28.87c-0.59-6.14-1.24-12.28-2.08-18.39
			c-1.2-8.75-2.59-17.47-3.81-25.56c-3.63,10.45-7.02,21.33-11.22,31.83c-2.14,5.35-5.64,10.1-8.83,14.88
			c-0.6,0.91-2.96,1.39-3.94,0.85c-1.97-1.08-1.17-3.02-0.13-4.65c1.52-2.39,3.2-4.7,4.5-7.23c12.46-24.37,18.28-50.84,18.55-78.38
			c0.22-21.69-1.72-43.41-2.69-65.12c-0.3-0.03-0.59-0.05-0.89-0.08c-0.3,0.97-0.68,1.92-0.88,2.91
			c-8.41,41.41-26.99,76.68-54.36,106.8c-17.72,19.5-37.66,35.96-58.17,51.7c-1.89,1.45-4.06,2.56-6.21,3.52
			c-0.83,0.37-2.53,0.25-2.87-0.32c-0.45-0.76-0.34-2.48,0.19-3.25c0.97-1.43,2.33-2.62,3.7-3.64c17.34-13.02,34.15-26.8,49.6-42.39
			c16.56-16.72,31.22-35.18,42.55-56.57c13.32-25.14,19.69-52.77,24.89-80.84c4.66-25.13,9.28-50.27,13.96-75.4
			c3.42-18.37,6.88-36.74,10.37-55.09c1.31-6.87,2.68-13.73,4.17-20.55c0.47-2.14,1.32-4.38,4.05-3.76
			c2.75,0.62,2.11,2.92,1.87,4.96c-0.07,0.6-0.14,1.21-0.26,1.8c-2.4,11.92-4.87,23.83-7.21,35.77
			c-4.96,25.31-9.84,50.64-14.76,75.96c-0.39,2.01-0.85,4.01-1.2,6.03c-0.33,1.89-0.55,3.8-0.82,5.7c0.36,0.17,0.73,0.34,1.09,0.51
			c2.82-4.75,5.85-9.37,8.41-14.27c6.15-11.8,9.07-24.92,12.7-37.73c0.59-2.07,1.36-4.2,3.86-3.42c2.32,0.73,2.46,2.87,1.87,5.05
			c-0.99,3.71-2.05,7.4-3.06,11.11c-4.43,16.25-9.9,31.93-20.57,44.81c-1.85,2.23-3.78,4.39-5.68,6.6c0.7,1.32,1.22,2.54,1.94,3.61
			c6.19,9.22,12.39,18.43,18.68,27.57c0.5,0.72,1.66,1.35,2.47,1.3c3.79-0.25,7.7-0.21,11.32-1.27c10.21-2.99,20.48-5.94,30.39-9.89
			c15.23-6.07,29.05-14.94,40.91-27.14c1.89-1.94,2.32-3.62,1.01-6.31c-6.94-14.24-13.96-28.44-20.46-42.92
			c-12.98-28.95-25.63-58.07-38.42-87.11c-4.78-10.85-10.14-21.32-17.23-30.66c-8.06-10.63-19.04-16.03-30.79-19.57
			c-26.86-8.08-53.84-15.71-80.77-23.5c-0.36-0.1-0.8,0.11-1.32,0.19c0.25,0.9,0.45,1.59,0.64,2.28
			c5.31,18.37,7.87,37.02,5.53,56.31c-1.2,9.89-5.03,15.31-14.12,17.18c-4.35,0.9-8.91,0.68-13.38,0.75
			c-6.94,0.11-13.88,0.03-20.97,0.03c0.07,0.94,0.08,1.65,0.18,2.34c1.03,7.42-0.19,8.95-6.96,10.08c-3.5,0.59-6.88,1.99-10.33,2.99
			c-2.04,0.6-2.82,2.01-2.78,4.28c0.27,14.71,0.42,29.43,0.73,44.14c0.15,7.17,0.69,14.34,0.81,21.51c0.09,5.69-1.68,8.4-6.66,9.19
			c-6.29,1-12.69,1.25-19.04,1.79c-0.53,0.05-1.24-0.01-1.61-0.36c-0.85-0.81-2.13-1.82-2.13-2.74c0.01-0.92,1.21-2.28,2.16-2.66
			c1.53-0.61,3.28-0.6,4.94-0.79c4.1-0.49,8.21-0.98,12.32-1.41c3.07-0.32,4.21-1.77,4.1-5.39c-0.56-17.87-0.83-35.75-1.18-53.63
			c-0.06-2.88-0.01-5.76-0.01-8.93c-0.59,0.3-1.02,0.41-1.32,0.69c-6.7,6.24-13.46,12.4-20.01,18.84c-1.25,1.23-2.23,3.51-2.29,5.34
			c-0.36,11.05-0.39,22.12-0.57,33.18c-0.08,5.33-0.07,10.66-0.46,15.97c-0.1,1.37-1.54,2.63-2.36,3.94
			c-0.96-1.31-2.45-2.49-2.76-3.97c-0.49-2.32-0.12-4.84-0.21-7.27c-0.79-21.25-1.05-42.46,3.29-63.37
			c-7-5.53-14.77-8.37-23.43-8.61c-3.93-0.11-7.6-1.09-8.45-6.43c-0.1-0.64-1.7-1.51-2.54-1.43c-5.01,0.47-10,1.17-15,1.82
			c-8.2,1.07-16.38,2.35-24.6,3.2c-8.22,0.84-9.74-3.89-10.58-9.65c-2.66-18.4-1.8-36.81,0.94-55.13
			c0.81-5.38,1.76-10.74,2.68-16.27c-6.17,2.25-12.05,4.53-18,6.53c-21.1,7.09-42.05,14.55-62.38,24.05
			c-15.36,7.18-27.77,17.72-35.73,33.72c-7.31,14.7-14.58,29.47-20.95,44.66c-9.89,23.56-18.8,47.61-28.53,71.25
			C260.97,574.02,254.79,586.64,248.82,599.79z M544.16,120.62c-10.57,11.42-19.91,15.4-33.11,9.8c-0.61,1.1-1.2,2.25-1.88,3.34
			c-4.98,7.99-10.63,15.08-19.9,17.3c-7.83,1.87-14.15-2.52-15.49-11.12c-0.4-2.57-0.06-5.28-0.06-7.85
			c-6.53,10.3-16.29,12.89-27.06,12.84c0.12,1.89,0.37,3.67,0.33,5.45c-0.2,9.07-2.94,17.49-7.09,25.09
			c-5.77,10.58-7.07,22.14-7.63,33.87c-1.12,23.17,1.41,46.06,5.38,68.79c2.74,15.71,6.93,30.92,15.7,44.02
			c12.36,18.47,29.46,29.77,49.23,36.68c8.11,2.84,16.41,4.61,24.92,4.36c0-2.06,0-3.87,0-5.9c3.85,0.76,2.29,3.74,2.65,6.34
			c5.45-0.63,10.8-1.05,16.1-1.92c12.61-2.05,23.64-7.76,32.99-17.26c14.42-14.66,23.75-32.67,29.5-52.95
			c3.21-11.33,3.78-23.12,4.13-34.88c0.84-27.61,1.68-55.24-0.77-82.79c-2.01-22.6-13.14-39.23-30.19-51.58
			c-0.82-0.59-2.5-0.5-3.47,0c-5.39,2.78-10.89,4.46-16.89,2.91C555.82,123.67,550.1,122.17,544.16,120.62z M252.72,695.64
			c0.32,5.21,0.67,9.93,0.89,14.66c0.51,11.04,0.83,22.1,1.48,33.13c1.21,20.73,2.67,41.45,3.9,62.18
			c1.44,24.25,2.7,48.51,4.18,72.75c0.13,2.17,1,4.52,2.14,6.33c2.94,4.64,7.68,6.47,12.35,8.12c12.25,4.34,24.93,4.58,37.57,3.48
			c8.53-0.75,17.06-2.22,25.03-6.18c5.21-2.59,8.36-6.3,7.72-12.87c-0.08-0.84,0.03-1.7,0.09-2.55c1.08-17.33,2.15-34.67,3.27-52
			c0.68-10.54,1.43-21.07,2.17-31.61c0.83-11.86,1.8-23.71,2.5-35.58c0.72-12.25,1.31-24.51,1.73-36.78
			c0.24-7.12,0.04-14.26,0.04-21.57c-16.27,8.65-34.05,9.94-52.02,9.61C287.73,706.43,269.83,705.02,252.72,695.64z M399.3,866.08
			c0,2.44-0.11,4.36,0.02,6.25c0.34,4.72,0.84,9.42,1.19,14.13c0.8,10.65,1.53,21.31,2.33,31.97c1,13.31,2.07,26.61,3.04,39.93
			c0.98,13.32,1.66,26.67,2.96,39.95c0.34,3.51,1.86,7.36,3.92,10.09c2.72,3.59,6.19,6.81,9.89,9.15
			c12.25,7.73,25.9,10.46,39.83,11.04c7.9,0.33,15.9-0.4,23.77-1.41c11.82-1.52,22.73-6.12,32.33-13.85
			c4.76-3.84,8.62-8.56,9.18-15.43c0.54-6.65,0.96-13.31,1.45-19.96c0.74-10.03,1.47-20.07,2.25-30.1
			c0.79-10.15,1.65-20.3,2.46-30.45c0.81-10.28,1.65-20.56,2.38-30.85c0.5-7.16,0.83-14.34,1.24-21.69
			c-3.36,2.52-6.06,4.9-9.05,6.73c-15.66,9.56-32.81,13.06-50.49,13.91c-13.01,0.63-25.99-0.09-38.81-2.86
			C425.24,879.6,411.57,875.77,399.3,866.08z M749.19,677.78c0.93-0.84,1.49-1.39,2.09-1.88c4.4-3.6,8.88-7.16,14.66-7.32
			c1.05-0.03,2.14,1.56,3.21,2.41c-0.8,1.13-1.42,2.98-2.43,3.29c-9.32,2.84-16.06,9.11-20.26,18.32
			c-4.65,10.19-9.16,20.5-13.02,31.06c-7.92,21.68-15.26,43.61-23.06,65.35c-3.18,8.87-6.92,17.5-10.48,26.41
			c21.28,0.99,42.34,1.93,63.4,3.03c2.33,0.12,3.69-0.51,4.86-2.69c6.42-12.08,13.24-23.93,19.38-36.17
			c10.13-20.19,20.22-40.42,29.6-61.02c6.41-14.06,7.38-29.27,3.11-44.32c-3.27-11.53-7.35-22.81-11.49-34.01
			c-5.54-15-11.49-29.82-17.41-45.07c-20.75,16.67-44.2,26.2-69.61,32.22C730.92,644.2,739.98,660.85,749.19,677.78z M541.09,839.44
			c-1.39-3.56-2.26-7.75-4.42-10.89c-4.19-6.1-8.91-11.83-13.76-17.34c-15.67-17.78-35.19-26.19-57.6-28.05
			c-10.1-0.84-20.19-2.6-30.13-4.76c-20.64-4.49-40.41-11.97-59.45-21.74c-4.39-2.25-8.82-4.42-13.4-6.71
			c-0.77,10.85-1.49,21.14-2.22,31.43c-0.68,9.68-1.3,19.37-2.07,29.04c-0.21,2.66,0.65,3.62,3.04,4.4
			c11.93,3.9,24.04,7.4,35.54,12.5c6.33,2.81,11.56,4.32,17.3-0.28c0.43-0.35,1.02-0.47,1.54-0.68c10.34-4.07,21.04-6.27,31.94-7.62
			c13.21-1.65,26.44-1.79,39.59,0.08c9.34,1.33,18.58,3.56,28.09,5.43c-3.11-2.74-6.01-5.85-9.38-8.14
			c-4.42-3.01-9.28-5.25-13.79-8.11c-1.25-0.79-1.95-2.6-2.9-3.95c1.43-0.6,2.88-1.72,4.29-1.67c1.7,0.06,3.43,0.97,5.03,1.79
			c10.22,5.22,18.6,12.95,25.71,22.39c0.84,1.11,1.71,2.3,2.8,3.07C531.46,832.92,536.16,836.07,541.09,839.44z M573.54,358.55
			c-0.94,0.78-1.38,1.12-1.8,1.5c-14.83,13.46-32.13,18.45-51,16.1c-18.73-2.34-34.92-11.31-48.88-25.04
			c-3-2.95-6.27-5.59-9.34-8.31c0,5.56-0.2,10.79,0.04,16c0.65,13.78,1.33,27.4,6.48,40.55c6.29,16.04,15.83,28.43,29.36,37.64
			c5.27,3.59,10.09,8.02,14.87,12.38c3.22,2.94,6,6.44,9.07,9.8c1.16-1.18,2.08-2.05,2.93-2.99c9.59-10.59,19-21.38,28.81-31.72
			c6.81-7.19,11.78-15.23,14.52-25.23C572.19,386.11,574.41,372.94,573.54,358.55z M675.39,815.1c5.81,0,11.02,0.11,16.23-0.11
			c0.87-0.04,2.05-1.3,2.48-2.31c2.89-6.68,5.86-13.33,8.35-20.19c8.62-23.71,16.8-47.61,25.66-71.21
			c4.53-12.07,10-23.73,15.34-35.42c1.03-2.27,1.2-3.74,0.05-5.83c-9.18-16.77-18.26-33.6-27.47-50.35
			c-0.46-0.83-1.91-1.62-2.77-1.48c-3.85,0.61-6.45-1-8.39-4.5c-1.84-3.32-3.75-6.62-5.86-9.75c-3.49-5.2-7.16-10.25-11.3-16.14
			c-0.09,1.77-0.17,2.36-0.13,2.95c0.86,14.78,1.65,29.56,2.61,44.33c1.28,19.76,2.86,39.51,0.84,59.32
			c-0.32,3.13-0.96,6.35-0.58,9.4c1.23,9.82,2.97,19.57,4.3,29.38c1.47,10.79,3.06,21.57,3.93,32.42
			c0.86,10.67-2.27,20.2-9.67,27.57C684.95,807.21,680.44,810.71,675.39,815.1z M331.26,652.05c-28.6-2.92-53.97-14.85-79.78-27.64
			c-7,22.68-14.21,44.92-20.71,67.4c-5.07,17.52-8.24,35.38-6.23,54.06c2.01,18.67,12.11,29.98,27.14,37.94
			c-0.3-5.86-0.57-11.42-0.88-16.97c-0.85-15.16-1.68-30.32-2.58-45.48c-0.56-9.46-1.05-18.93-1.93-28.36
			c-0.99-10.62,1.28-15.49,9.74-19.26c1.34-0.6,2.71-1.1,4.09-1.58c19.86-6.97,40.26-7.38,60.82-6.03c1.4,0.09,3.54-0.47,4.17-1.54
			C327.37,660.73,329.12,656.53,331.26,652.05z M564.87,442.94c2.06,0,3.82,0,5.57,0c8.64-0.02,17.28,0.21,25.91-0.14
			c6.5-0.26,10.22-3.21,10.82-8.7c0.8-7.33,1.33-14.76,1.15-22.12c-0.3-12.81-3.43-25.11-7.04-37.26
			c-3.1-10.41-8.75-18.94-16.03-26.28c-4.03,2.79-6,5.98-5.64,11.42c0.78,11.67-0.18,23.3-3.28,34.6
			c-2.77,10.09-5.18,20.4-12.25,28.29c-5.16,5.76-10.44,11.4-15.62,17.14c-8.95,9.91-18,19.72-26.71,29.87
			c-2.05,2.39-2.93,5.95-4.35,8.97c0.35,0.27,0.7,0.55,1.05,0.82c11.48-12.09,23.55-23.01,40.28-24.35c0-7.14-0.01-13.92,0-20.7
			c0-2.23-0.09-4.79,2.81-4.73c2.52,0.05,3.22,2.3,3.3,4.62C564.95,437.3,564.87,440.21,564.87,442.94z M409.44,865.46
			c27.37,17.16,90.15,19.12,116.99-0.19c-0.82-2.87-1.9-5.74-5.19-5.64c-4.1,0.12-6.87-2.17-8.96-5.43
			c-2.55-3.96-5.84-5.26-10.13-4.85c-3.49,0.33-6.98-0.05-9.81-2.71c-5.3-5.01-11.16-5.89-17.83-3.7c-2.67,0.88-6.04,1.44-8.51,0.45
			c-8.4-3.34-15.85-1.52-23.47,2.72c-3.54,1.98-7.83,2.32-11.68,3.73c-3.31,1.21-7.01,2.17-9.58,4.49
			c-3.19,2.88-5.36,7.04-9.65,8.63C410.8,863.26,410.27,864.47,409.44,865.46z M456.06,351.25c-10.09,8.99-15.6,20.49-18.33,33.27
			c-4.59,21.47-6.82,43.24-3.6,65.29c0.87,5.95,0.84,6.25,6.25,5.56c13.18-1.69,26.32-3.68,39.46-5.54
			c-0.38-6.12-0.63-12.18-1.2-18.2c-0.16-1.75-0.87-3.69-1.88-5.06c-11.86-16.06-18.82-34.14-19.65-54.84
			C456.84,365.09,456.43,358.47,456.06,351.25z M533.8,860.29c5.91-4.89,6.16-13.16-1.06-19.1c-3.26-2.68-6.89-5.03-10.67-6.7
			c-12.6-5.56-25.76-8.6-39.34-9.71c-19.12-1.56-38.06-0.8-56.66,4.59c-9.12,2.64-17.94,6.16-24.67,13.91
			c-4.45,5.13-4.16,12.34,0.52,17.2c1.72,1.78,2.8,1.31,4.05-0.51c0.82-1.2,1.78-2.87,2.92-3.14c3.61-0.88,5.65-3.56,7.75-6.46
			c3.22-4.44,7.74-6.84,12.76-7.05c4.66-0.2,8.74-1.52,12.75-3.88c7.78-4.59,15.87-6.08,24.54-2.87c1.92,0.71,4.44,0.48,6.44-0.17
			c7.09-2.31,13.84-1.86,19.85,2.87c3.69,2.91,7.59,3.68,11.92,4c2.56,0.19,5.65,0.78,7.44,2.49c4.18,4,7.98,7.96,13.92,9.06
			C528.84,855.3,531.04,858.2,533.8,860.29z M526.85,1015.52c-4.9,3.13-9.75,6.86-15.05,9.51c-22.26,11.14-45.5,12.1-69.17,6.9
			c-12.07-2.65-23.26-7.47-32.83-16.78c1.14,5.24,2.25,10.49,4.64,14.92c3.98,7.39,10.78,11.41,17.86,14.7
			c9.02,4.21,18.54,5.91,28.28,6.84c15.52,1.48,30.58-0.09,44.99-6.79C517.68,1039.19,525.82,1030.08,526.85,1015.52z
			 M301.16,671.85c-4.79,0.41-13.42,0.74-21.94,1.99c-8.03,1.18-16.14,2.59-23.37,7.05c-5.38,3.31-5.5,5.14-0.49,8.84
			c1.91,1.41,3.62,3.63,6.56,2.34c12.52-5.48,25.72-7.05,39.05-7.33c8.5-0.18,17.05,0.04,25.52,0.79
			c8.19,0.72,16.46,1.75,23.72,6.71c0.63,0.43,1.83,0.5,2.47,0.13c1.97-1.11,3.87-2.4,5.67-3.82c2.42-1.92,2.16-4.32-0.04-5.97
			c-2.44-1.82-5.14-3.42-7.94-4.45C335.64,672.7,320.31,672.27,301.16,671.85z M330.58,666.75c4.13,0.89,8.06,1.64,11.94,2.6
			c6.96,1.72,14.15,3.08,19.71,8.4c1.64,1.57,3.16,4.47,3.11,6.71c-0.25,11.3-1.06,22.58-1.61,33.88c-0.37,7.53-0.7,15.06-0.86,22.6
			c-0.02,1.01,1.05,2.05,1.62,3.07c0.34-0.17,0.69-0.35,1.03-0.52c0.96-7.67,1.83-15.35,2.9-23c1.65-11.76,1.33-23.52,0.04-35.27
			c-1.19-10.84-2.42-21.67-3.66-32.5c-1.41-12.3-2.85-24.59-4.36-37.58c-0.52,1.22-0.81,1.83-1.05,2.46
			c-3.4,8.82-7,17.56-10.12,26.49c-1.86,5.32-5.05,7.96-10.15,8.46c-1,0.1-2.35,0.91-2.81,1.82
			C334.26,658.37,332.49,662.55,330.58,666.75z M264.45,894.13c0,1.56,0.05,3.5-0.01,5.44c-0.15,5.41,2.11,9.29,6.45,11.74
			c1.87,1.06,3.82,1.97,5.81,2.73c8.63,3.29,17.59,4.53,26.68,4.6c12.85,0.09,25.43-1.44,36.95-8.32c5.64-3.37,7.63-9.07,5.85-15.34
			C318.88,906,291.81,907.53,264.45,894.13z M344.72,639.15c-35.25-3.46-66.24-20.22-98.25-34.22c-1.06,2.44-2.03,4.69-3.12,7.21
			c2.21,1.41,4.12,2.94,6.25,3.94c13.71,6.43,27.39,12.95,41.23,19.02c13.63,5.97,27.97,9.22,42.57,10.62
			C342.34,646.58,341.22,646.64,344.72,639.15z M431.54,280.48c-0.12-1.14-0.19-2.2-0.33-3.24c-0.79-5.62-1.76-11.22-2.36-16.87
			c-1.16-10.96-2.23-21.94-3.1-32.94c-0.24-2.99-1.75-4.26-3.89-5.23c-7.05-3.19-15.85,2.18-17.2,11.09
			c-2.1,13.82,1.85,26.09,9.57,37.01C418.48,276.32,424.08,279.97,431.54,280.48z M269.76,695.25c24.82,6.51,49.63,7.27,74.44,0.14
			C319.4,688.44,294.58,689.33,269.76,695.25z M618.4,271.03c0.18,0.16,0.37,0.31,0.55,0.47c1.76-3.03,3.79-5.91,5.23-9.1
			c3.55-7.93,5.24-16.47,5.96-25.19c0.51-6.21,0.08-12.39-2.74-18.06c-1.14-2.29-3.03-3.26-5.37-2.66
			c-2.37,0.61-2.84,2.51-2.86,4.99C618.99,238,618.67,254.51,618.4,271.03z M484.53,434.75c0.8,7.2,1.53,13.8,2.29,20.4
			c0.26,2.24,1.62,2.88,3.53,3.05c3.11,0.27,6.35,0.27,9.27,1.29c5.46,1.9,10.74,4.45,16.34,6.83c0.09-0.11,0.55-0.64,0.97-1.19
			c0.28-0.36,0.51-0.77,0.76-1.14C508.89,451.52,497,443.36,484.53,434.75z M536.39,817.66c1.48-7.56-3.83-13.04-12.42-15.26
			C527.28,806.48,531.68,811.88,536.39,817.66z"/>
		<path class="st0" d="M248.82,599.79c5.96-13.15,12.14-25.77,17.5-38.79c9.73-23.65,18.64-47.69,28.53-71.25
			c6.37-15.19,13.64-29.96,20.95-44.66c7.96-16,20.38-26.54,35.73-33.72c20.33-9.5,41.28-16.96,62.38-24.05
			c5.96-2,11.84-4.29,18-6.53c-0.91,5.53-1.87,10.88-2.68,16.27c-2.74,18.33-3.6,36.73-0.94,55.13c0.83,5.76,2.36,10.49,10.58,9.65
			c8.22-0.84,16.4-2.13,24.6-3.2c5-0.65,9.99-1.35,15-1.82c0.84-0.08,2.44,0.79,2.54,1.43c0.84,5.34,4.52,6.32,8.45,6.43
			c8.66,0.24,16.43,3.08,23.43,8.61c-4.34,20.91-4.08,42.12-3.29,63.37c0.09,2.43-0.28,4.95,0.21,7.27c0.31,1.47,1.8,2.65,2.76,3.97
			c0.82-1.31,2.26-2.57,2.36-3.94c0.39-5.3,0.38-10.64,0.46-15.97c0.17-11.06,0.21-22.12,0.57-33.18c0.06-1.83,1.04-4.11,2.29-5.34
			c6.54-6.43,13.31-12.6,20.01-18.84c0.3-0.28,0.73-0.39,1.32-0.69c0,3.17-0.05,6.05,0.01,8.93c0.35,17.88,0.62,35.76,1.18,53.63
			c0.11,3.61-1.03,5.07-4.1,5.39c-4.11,0.43-8.21,0.92-12.32,1.41c-1.66,0.2-3.41,0.19-4.94,0.79c-0.95,0.37-2.15,1.73-2.16,2.66
			c-0.01,0.92,1.28,1.93,2.13,2.74c0.36,0.34,1.07,0.4,1.61,0.36c6.35-0.54,12.75-0.8,19.04-1.79c4.98-0.79,6.75-3.5,6.66-9.19
			c-0.12-7.17-0.66-14.34-0.81-21.51c-0.31-14.71-0.46-29.43-0.73-44.14c-0.04-2.27,0.73-3.68,2.78-4.28c3.44-1,6.83-2.4,10.33-2.99
			c6.76-1.13,7.98-2.66,6.96-10.08c-0.1-0.7-0.11-1.4-0.18-2.34c7.09,0,14.03,0.08,20.97-0.03c4.47-0.07,9.03,0.14,13.38-0.75
			c9.09-1.87,12.92-7.28,14.12-17.18c2.35-19.29-0.22-37.94-5.53-56.31c-0.2-0.69-0.39-1.38-0.64-2.28c0.52-0.08,0.96-0.3,1.32-0.19
			c26.94,7.79,53.91,15.43,80.77,23.5c11.75,3.53,22.73,8.94,30.79,19.57c7.08,9.34,12.45,19.8,17.23,30.66
			c12.8,29.04,25.44,58.16,38.42,87.11c6.49,14.48,13.51,28.69,20.46,42.92c1.31,2.69,0.89,4.37-1.01,6.31
			c-11.87,12.2-25.68,21.07-40.91,27.14c-9.91,3.95-20.18,6.9-30.39,9.89c-3.62,1.06-7.53,1.02-11.32,1.27
			c-0.81,0.05-1.97-0.58-2.47-1.3c-6.28-9.14-12.49-18.35-18.68-27.57c-0.72-1.07-1.24-2.3-1.94-3.61c1.9-2.21,3.83-4.36,5.68-6.6
			c10.66-12.88,16.14-28.57,20.57-44.81c1.01-3.71,2.07-7.4,3.06-11.11c0.59-2.19,0.45-4.33-1.87-5.05
			c-2.5-0.79-3.27,1.35-3.86,3.42c-3.63,12.82-6.55,25.94-12.7,37.73c-2.56,4.91-5.59,9.53-8.41,14.27
			c-0.36-0.17-0.73-0.34-1.09-0.51c0.27-1.9,0.49-3.81,0.82-5.7c0.35-2.02,0.81-4.02,1.2-6.03c4.92-25.32,9.81-50.65,14.76-75.96
			c2.34-11.94,4.81-23.85,7.21-35.77c0.12-0.59,0.19-1.2,0.26-1.8c0.24-2.04,0.88-4.34-1.87-4.96c-2.73-0.61-3.58,1.62-4.05,3.76
			c-1.49,6.83-2.86,13.68-4.17,20.55c-3.49,18.36-6.95,36.72-10.37,55.09c-4.68,25.13-9.3,50.27-13.96,75.4
			c-5.2,28.07-11.58,55.7-24.89,80.84c-11.33,21.39-26,39.85-42.55,56.57c-15.44,15.59-32.25,29.37-49.6,42.39
			c-1.37,1.03-2.72,2.22-3.7,3.64c-0.53,0.78-0.64,2.49-0.19,3.25c0.34,0.57,2.03,0.69,2.87,0.32c2.16-0.96,4.32-2.06,6.21-3.52
			c20.51-15.75,40.46-32.21,58.17-51.7c27.38-30.13,45.95-65.39,54.36-106.8c0.2-0.99,0.58-1.94,0.88-2.91
			c0.3,0.03,0.59,0.05,0.89,0.08c0.98,21.71,2.91,43.43,2.69,65.12c-0.28,27.55-6.09,54.01-18.55,78.38
			c-1.3,2.53-2.97,4.84-4.5,7.23c-1.04,1.63-1.84,3.57,0.13,4.65c0.98,0.54,3.34,0.05,3.94-0.85c3.19-4.78,6.69-9.53,8.83-14.88
			c4.21-10.49,7.59-21.38,11.22-31.83c1.22,8.09,2.61,16.81,3.81,25.56c0.84,6.11,1.49,12.25,2.08,18.39
			c1.21,12.59-4.22,21.77-13.17,28.87c-4.05,3.21-8.4,6.01-12.74,8.75c-1.26,0.79-2.97,1.1-4.46,1.05
			c-18.28-0.68-36.55-1.36-54.82-2.26c-21.85-1.08-43.69-2.36-65.53-3.63c-0.92-0.05-1.87-0.81-2.67-1.45
			c-3.28-2.62-6.18-6.11-9.81-7.81c-7.04-3.3-14.53-5.44-21.73-8.37c-4.58-1.86-8.88-4.53-13.47-6.37
			c-10.02-4.02-20.56-5.43-31.11-6.69c-19.25-2.29-38.23-6.12-56.42-13.5c-11.16-4.52-22.05-9.79-33.13-14.54
			c-2.6-1.11-3.02-2.53-2.73-5.45c1.43-14.22,3.48-28.48,3.51-42.73c0.02-13.64-2.08-27.29-3.42-40.92
			c-1.37-13.99-3.67-27.92-4.24-41.93c-0.71-17.46,0.23-34.99-0.1-52.48c-0.32-16.88-0.89-33.78-2.16-50.59
			c-1.42-18.62-4.75-36.97-11.46-54.27c-2.56-6.61-6.63-12.53-10.08-18.72c-0.45-0.81-1.14-1.72-1.89-1.99
			c-1.13-0.4-3.13-0.8-3.48-0.25c-0.64,1.01-0.87,3.03-0.35,4.08c1.11,2.21,2.94,3.97,4.26,6.08c6.95,11.13,10.3,23.77,12.99,36.69
			c6.97,33.49,7.12,67.41,6.4,101.52c-0.27,12.8-5.37,23.28-9.44,34.45c-0.2,0.56-0.5,1.09-0.72,1.65c-3.77,9.62-4.29,9.57-14.07,8
			c-21.17-3.4-41.04-11.27-60.72-19.89C267.18,607.88,258.2,603.92,248.82,599.79z M420.5,726.31c0.02,0.12,0.05,0.25,0.07,0.37
			c3.25-0.8,6.54-1.46,9.76-2.41c24.29-7.2,46.56-19.17,67.36-34.33c22.07-16.08,42.98-33.81,62.23-53.76
			c3.15-3.27,6.19-6.71,8.98-10.34c0.66-0.86,0.12-2.81,0.13-4.27c-1.33,0.17-2.69,0.21-3.97,0.57c-0.57,0.16-0.99,0.94-1.46,1.47
			c-18.14,20.18-38.31,37.75-59.38,54.13c-20.53,15.97-42.57,29-66.54,37.88c-6.21,2.3-12.74,3.58-19.08,5.5
			c-1.05,0.32-1.86,1.58-2.78,2.41c1.11,0.92,2.19,1.89,3.35,2.73C419.48,726.5,420.05,726.31,420.5,726.31z M465.42,766.9
			c3.53-0.75,7.5-1.43,11.4-2.44c38.29-9.92,73.52-27.57,106.85-49.96c2.16-1.45,4.11-3.36,5.86-5.37c0.61-0.71,0.32-2.35,0.43-3.56
			c-1.19-0.09-2.62-0.68-3.54-0.17c-2.18,1.21-4.04,3.05-6.15,4.42c-28.14,18.29-57.4,33.97-89.04,43.86
			c-8.76,2.74-17.75,4.63-26.61,7.01c-2.07,0.55-5.58-0.51-5.5,3.14C459.2,767.91,462.81,766.08,465.42,766.9z M519.08,501.84
			c-0.03,5.79,2.89,9.6,7.42,9.67c4.82,0.07,8.66-4.22,8.56-9.57c-0.08-4.19-5.09-9.25-9.08-9.16
			C521.92,492.88,519.12,496.56,519.08,501.84z"/>
		<path class="st0" d="M749.19,677.78c-9.21-16.93-18.27-33.58-27.43-50.42c25.41-6.03,48.86-15.56,69.61-32.22
			c5.91,15.25,11.86,30.07,17.41,45.07c4.14,11.21,8.22,22.49,11.49,34.01c4.27,15.05,3.3,30.26-3.11,44.32
			c-9.39,20.6-19.48,40.83-29.6,61.02c-6.14,12.25-12.96,24.09-19.38,36.17c-1.16,2.19-2.53,2.82-4.86,2.69
			c-21.06-1.1-42.13-2.04-63.4-3.03c3.56-8.92,7.3-17.55,10.48-26.41c7.8-21.74,15.14-43.67,23.06-65.35
			c3.86-10.56,8.37-20.87,13.02-31.06c4.2-9.2,10.94-15.47,20.26-18.32c1.02-0.31,1.63-2.15,2.43-3.29
			c-1.07-0.84-2.16-2.43-3.21-2.41c-5.78,0.16-10.26,3.73-14.66,7.32C750.68,676.39,750.12,676.94,749.19,677.78z"/>
		<path class="st0" d="M541.09,839.44c-4.92-3.37-9.63-6.52-14.25-9.81c-1.09-0.77-1.96-1.96-2.8-3.07
			c-7.11-9.44-15.49-17.17-25.71-22.39c-1.6-0.82-3.33-1.72-5.03-1.79c-1.41-0.05-2.86,1.07-4.29,1.67c0.95,1.34,1.65,3.16,2.9,3.95
			c4.51,2.86,9.37,5.1,13.79,8.11c3.37,2.29,6.27,5.4,9.38,8.14c-9.51-1.87-18.75-4.1-28.09-5.43c-13.16-1.87-26.38-1.73-39.59-0.08
			c-10.9,1.36-21.6,3.56-31.94,7.62c-0.52,0.21-1.11,0.33-1.54,0.68c-5.74,4.6-10.97,3.09-17.3,0.28c-11.5-5.1-23.61-8.6-35.54-12.5
			c-2.39-0.78-3.25-1.74-3.04-4.4c0.77-9.67,1.39-19.36,2.07-29.04c0.72-10.29,1.45-20.58,2.22-31.43c4.58,2.29,9.01,4.45,13.4,6.71
			c19.03,9.77,38.81,17.25,59.45,21.74c9.94,2.16,20.03,3.92,30.13,4.76c22.41,1.87,41.94,10.27,57.6,28.05
			c4.86,5.51,9.57,11.24,13.76,17.34C538.82,831.69,539.69,835.88,541.09,839.44z"/>
		<path class="st0" d="M573.54,358.55c0.87,14.38-1.35,27.56-4.95,40.67c-2.74,9.99-7.71,18.04-14.52,25.23
			c-9.81,10.35-19.22,21.13-28.81,31.72c-0.85,0.94-1.77,1.81-2.93,2.99c-3.07-3.36-5.85-6.86-9.07-9.8
			c-4.78-4.37-9.6-8.79-14.87-12.38c-13.53-9.21-23.07-21.61-29.36-37.64c-5.16-13.15-5.84-26.77-6.48-40.55
			c-0.24-5.2-0.04-10.43-0.04-16c3.07,2.72,6.34,5.35,9.34,8.31c13.96,13.74,30.15,22.71,48.88,25.04c18.87,2.35,36.17-2.64,51-16.1
			C572.16,359.68,572.6,359.33,573.54,358.55z"/>
		<path class="st0" d="M675.39,815.1c5.04-4.38,9.56-7.88,13.62-11.93c7.4-7.37,10.53-16.89,9.67-27.57
			c-0.88-10.85-2.47-21.64-3.93-32.42c-1.33-9.81-3.08-19.56-4.3-29.38c-0.38-3.05,0.26-6.27,0.58-9.4
			c2.02-19.81,0.44-39.56-0.84-59.32c-0.96-14.77-1.75-29.55-2.61-44.33c-0.03-0.58,0.05-1.18,0.13-2.95
			c4.14,5.89,7.81,10.94,11.3,16.14c2.1,3.13,4.01,6.43,5.86,9.75c1.94,3.5,4.54,5.11,8.39,4.5c0.86-0.14,2.31,0.65,2.77,1.48
			c9.21,16.75,18.29,33.58,27.47,50.35c1.15,2.1,0.99,3.56-0.05,5.83c-5.34,11.69-10.81,23.35-15.34,35.42
			c-8.85,23.61-17.04,47.5-25.66,71.21c-2.49,6.86-5.46,13.51-8.35,20.19c-0.43,1-1.61,2.27-2.48,2.31
			C686.42,815.2,681.2,815.1,675.39,815.1z"/>
		<path class="st0" d="M331.26,652.05c-2.14,4.48-3.9,8.69-6.16,12.54c-0.62,1.07-2.77,1.63-4.17,1.54
			c-20.57-1.35-40.96-0.94-60.82,6.03c-1.38,0.48-2.75,0.99-4.09,1.58c-8.46,3.78-10.73,8.64-9.74,19.26
			c0.88,9.43,1.36,18.9,1.93,28.36c0.9,15.16,1.73,30.32,2.58,45.48c0.31,5.55,0.58,11.11,0.88,16.97
			c-15.03-7.97-25.13-19.28-27.14-37.94c-2.01-18.68,1.16-36.54,6.23-54.06c6.5-22.48,13.71-44.73,20.71-67.4
			C277.29,637.2,302.67,649.12,331.26,652.05z"/>
		<path class="st0" d="M564.87,442.94c0-2.73,0.08-5.64-0.02-8.54c-0.08-2.32-0.78-4.57-3.3-4.62c-2.9-0.06-2.81,2.5-2.81,4.73
			c-0.01,6.78,0,13.57,0,20.7c-16.73,1.35-28.81,12.27-40.28,24.35c-0.35-0.27-0.7-0.55-1.05-0.82c1.42-3.02,2.3-6.59,4.35-8.97
			c8.71-10.15,17.76-19.96,26.71-29.87c5.18-5.74,10.46-11.38,15.62-17.14c7.07-7.89,9.49-18.2,12.25-28.29
			c3.1-11.3,4.06-22.93,3.28-34.6c-0.36-5.44,1.61-8.63,5.64-11.42c7.27,7.34,12.93,15.87,16.03,26.28
			c3.61,12.14,6.74,24.44,7.04,37.26c0.17,7.36-0.36,14.79-1.15,22.12c-0.6,5.49-4.32,8.44-10.82,8.7
			c-8.63,0.35-17.27,0.12-25.91,0.14C568.69,442.94,566.93,442.94,564.87,442.94z"/>
		<path class="st0" d="M456.06,351.25c0.37,7.23,0.78,13.84,1.05,20.47c0.83,20.7,7.79,38.78,19.65,54.84
			c1.01,1.37,1.72,3.31,1.88,5.06c0.56,6.02,0.82,12.08,1.2,18.2c-13.14,1.87-26.28,3.85-39.46,5.54c-5.41,0.69-5.38,0.39-6.25-5.56
			c-3.22-22.05-0.99-43.82,3.6-65.29C440.46,371.74,445.96,360.24,456.06,351.25z"/>
		<path class="st0" d="M533.8,860.29c-2.76-2.1-4.96-5-7.54-5.48c-5.93-1.1-9.74-5.06-13.92-9.06c-1.79-1.71-4.88-2.3-7.44-2.49
			c-4.33-0.32-8.23-1.09-11.92-4c-6-4.73-12.76-5.18-19.85-2.87c-2,0.65-4.52,0.89-6.44,0.17c-8.67-3.22-16.76-1.72-24.54,2.87
			c-4.01,2.37-8.09,3.68-12.75,3.88c-5.02,0.22-9.55,2.62-12.76,7.05c-2.1,2.9-4.14,5.57-7.75,6.46c-1.14,0.28-2.09,1.94-2.92,3.14
			c-1.25,1.82-2.33,2.3-4.05,0.51c-4.68-4.86-4.97-12.07-0.52-17.2c6.72-7.75,15.54-11.27,24.67-13.91
			c18.6-5.39,37.54-6.15,56.66-4.59c13.58,1.11,26.74,4.14,39.34,9.71c3.78,1.67,7.41,4.02,10.67,6.7
			C539.96,847.13,539.71,855.4,533.8,860.29z"/>
		<path class="st0" d="M301.16,671.85c19.15,0.42,34.49,0.85,49.21,6.27c2.8,1.03,5.5,2.63,7.94,4.45c2.2,1.65,2.46,4.04,0.04,5.97
			c-1.79,1.42-3.7,2.71-5.67,3.82c-0.65,0.36-1.85,0.29-2.47-0.13c-7.26-4.96-15.53-5.99-23.72-6.71
			c-8.47-0.75-17.02-0.96-25.52-0.79c-13.33,0.28-26.53,1.85-39.05,7.33c-2.94,1.29-4.65-0.93-6.56-2.34
			c-5.02-3.7-4.9-5.53,0.49-8.84c7.23-4.45,15.34-5.87,23.37-7.05C287.73,672.59,296.36,672.26,301.16,671.85z"/>
		<path class="st0" d="M330.58,666.75c1.91-4.2,3.69-8.37,5.73-12.39c0.46-0.91,1.81-1.73,2.81-1.82c5.1-0.5,8.28-3.14,10.15-8.46
			c3.13-8.93,6.72-17.67,10.12-26.49c0.24-0.63,0.53-1.24,1.05-2.46c1.51,12.98,2.95,25.28,4.36,37.58
			c1.24,10.83,2.47,21.66,3.66,32.5c1.29,11.75,1.6,23.51-0.04,35.27c-1.07,7.65-1.94,15.33-2.9,23c-0.34,0.17-0.69,0.35-1.03,0.52
			c-0.57-1.02-1.64-2.06-1.62-3.07c0.16-7.54,0.49-15.07,0.86-22.6c0.55-11.29,1.37-22.58,1.61-33.88c0.05-2.25-1.47-5.15-3.11-6.71
			c-5.56-5.32-12.75-6.68-19.71-8.4C338.63,668.39,334.71,667.64,330.58,666.75z"/>
		<path class="st0" d="M264.45,894.13c27.36,13.39,54.43,11.87,81.73,0.85c1.79,6.27-0.2,11.97-5.85,15.34
			c-11.52,6.88-24.1,8.41-36.95,8.32c-9.1-0.07-18.05-1.31-26.68-4.6c-1.99-0.76-3.94-1.67-5.81-2.73
			c-4.34-2.46-6.6-6.33-6.45-11.74C264.5,897.63,264.45,895.69,264.45,894.13z"/>
		<path class="st0" d="M344.72,639.15c-3.5,7.49-2.38,7.43-11.32,6.57c-14.6-1.4-28.94-4.65-42.57-10.62
			c-13.85-6.07-27.52-12.6-41.23-19.02c-2.13-1-4.04-2.53-6.25-3.94c1.09-2.52,2.06-4.77,3.12-7.21
			C278.48,618.93,309.47,635.69,344.72,639.15z"/>
		<path class="st0" d="M431.54,280.48c-7.46-0.51-13.06-4.16-17.31-10.18c-7.72-10.92-11.67-23.19-9.57-37.01
			c1.35-8.92,10.15-14.28,17.2-11.09c2.15,0.97,3.66,2.24,3.89,5.23c0.87,11,1.93,21.98,3.1,32.94c0.6,5.65,1.57,11.25,2.36,16.87
			C431.35,278.29,431.42,279.34,431.54,280.48z M425.99,256.85c-1.55-7.98-3.47-15-7.45-21.1c-0.57-0.88-3.11-1.5-3.47-1.05
			c-0.93,1.18-1.92,3.28-1.54,4.54c1.86,6.13,4.04,12.16,6.41,18.08c0.49,1.23,2.32,2.67,3.4,2.55
			C424.38,259.75,425.25,257.76,425.99,256.85z"/>
		<path class="st0" d="M269.76,695.25c24.82-5.92,49.64-6.81,74.44,0.14C319.39,702.53,294.59,701.77,269.76,695.25z"/>
		<path class="st0" d="M618.4,271.03c0.27-16.52,0.59-33.03,0.77-49.55c0.03-2.48,0.49-4.38,2.86-4.99c2.34-0.6,4.23,0.37,5.37,2.66
			c2.82,5.66,3.25,11.85,2.74,18.06c-0.72,8.72-2.41,17.26-5.96,25.19c-1.43,3.2-3.47,6.08-5.23,9.1
			C618.77,271.34,618.58,271.19,618.4,271.03z"/>
		<path class="st0" d="M484.53,434.75c12.47,8.61,24.36,16.77,33.15,29.24c-0.25,0.37-0.48,0.78-0.76,1.14
			c-0.42,0.55-0.88,1.08-0.97,1.19c-5.6-2.38-10.87-4.93-16.34-6.83c-2.92-1.02-6.16-1.01-9.27-1.29c-1.91-0.17-3.27-0.81-3.53-3.05
			C486.06,448.55,485.33,441.95,484.53,434.75z"/>
		<path class="st0" d="M536.39,817.66c-4.71-5.78-9.11-11.19-12.42-15.26C532.56,804.63,537.87,810.11,536.39,817.66z"/>
		<path class="st1" d="M420.5,726.31c-0.45,0-1.01,0.19-1.33-0.03c-1.16-0.83-2.24-1.81-3.35-2.73c0.92-0.83,1.73-2.09,2.78-2.41
			c6.34-1.93,12.87-3.2,19.08-5.5c23.97-8.89,46-21.91,66.54-37.88c21.06-16.39,41.24-33.96,59.38-54.13
			c0.47-0.52,0.9-1.31,1.46-1.47c1.28-0.36,2.64-0.4,3.97-0.57c-0.01,1.45,0.53,3.4-0.13,4.27c-2.79,3.63-5.82,7.07-8.98,10.34
			c-19.25,19.95-40.16,37.68-62.23,53.76c-20.8,15.16-43.07,27.13-67.36,34.33c-3.21,0.95-6.5,1.61-9.76,2.41
			C420.55,726.56,420.52,726.43,420.5,726.31z"/>
		<path class="st1" d="M465.42,766.9c-2.61-0.82-6.22,1.02-6.31-3.09c-0.08-3.66,3.43-2.59,5.5-3.14
			c8.86-2.37,17.85-4.27,26.61-7.01c31.64-9.89,60.9-25.56,89.04-43.86c2.11-1.37,3.97-3.22,6.15-4.42
			c0.91-0.51,2.34,0.08,3.54,0.17c-0.12,1.21,0.18,2.85-0.43,3.56c-1.75,2.01-3.7,3.92-5.86,5.37
			c-33.33,22.4-68.56,40.04-106.85,49.96C472.92,765.46,468.95,766.15,465.42,766.9z"/>
		<path class="st0" d="M519.08,501.84c0.03-5.28,2.83-8.96,6.9-9.05c3.99-0.09,9,4.96,9.08,9.16c0.1,5.35-3.74,9.64-8.56,9.57
			C521.97,511.45,519.05,507.64,519.08,501.84z M526.45,499.05c-0.61,0.44-1.23,0.87-1.84,1.31c0.79,1.52,1.59,3.04,2.38,4.56
			c0.71-0.6,2.11-1.6,2.04-1.75C528.31,501.71,527.34,500.4,526.45,499.05z"/>
		<path class="st1" d="M538.27,277.7c-2.58-1.13-7.58-3.06-12.32-5.56c-1.33-0.7-2.28-2.97-2.69-4.71c-0.29-1.22,0.63-2.78,1-4.19
			c1.29,0.43,2.88,0.49,3.82,1.37c3.59,3.33,7.46,5.76,12.31,5.84c8,0.13,12.89-6.18,10.65-14.56c-2.32-8.69-5.45-17.12-8.1-25.7
			c-1.48-4.8-2.75-9.69-4.02-14.57c-0.3-1.14-0.55-2.57-0.16-3.57c0.45-1.16,1.5-2.45,2.54-2.77c0.6-0.19,2.13,1.23,2.47,2.23
			c4.33,12.92,8.51,25.91,12.74,38.87c1.49,4.56,2,9.18,0.82,13.92C555.31,272.39,548.76,277.76,538.27,277.7z"/>
		<path class="st1" d="M500.46,193.73c-11.02-0.04-21.89,0.68-31.8,6.84c-1.9,1.18-4.07,1.94-5.81-0.28
			c-1.78-2.27-0.99-4.74,0.54-6.6c1.76-2.13,3.7-4.37,6.01-5.62c11.6-6.27,23.96-7.21,36.58-5.2c1.9,0.3,3.98,1.26,5.38,2.64
			c1.22,1.2,2.33,3.54,2.09,5.12c-0.19,1.23-2.44,2.73-3.93,2.96C506.56,194.05,503.49,193.73,500.46,193.73z"/>
		<path class="st1" d="M570.99,178.4c7.23-0.18,14.42,0.36,20.84,4.25c2.48,1.5,4.49,4.2,6.2,6.76c0.6,0.89,0.11,3.5-0.72,4.4
			c-0.85,0.92-3.16,1.46-4.12,0.85c-11.44-7.27-23.52-5.25-35.64-3.27c-0.77,0.13-1.62,0.36-2.33,0.14c-1.71-0.53-4.2-0.8-4.84-2.08
			c-1.17-2.34-0.39-5.45,2.01-6.56c4.04-1.86,8.3-3.22,12.57-4.39C566.85,177.96,568.97,178.4,570.99,178.4z"/>
		<path class="st1" d="M533.89,311.88c-8.7-0.42-17.26-1.05-25.36-4.76c-1.42-0.65-3.03-1.37-3.95-2.58
			c-0.79-1.05-1.28-3.05-0.93-4.29c0.6-2.11,2.44-2.21,4.18-1.31c15.01,7.84,30.51,6.93,46.12,2.85c2.44-0.64,4.71-2.1,6.97-3.37
			c1.89-1.07,3.73-1.65,4.96,0.66c1.17,2.2,0.15,4.32-1.71,5.19c-4.47,2.09-8.99,4.34-13.7,5.48
			C545.08,311.04,539.43,311.22,533.89,311.88z"/>
		<path class="st1" d="M498.16,223.29c-0.6,2.34-0.86,4.7-1.8,6.69c-1.24,2.65-3.2,4.85-6.29,4.62c-3.07-0.23-5.68-2.21-6.27-5.21
			c-0.76-3.89-0.88-8.13-0.32-12.05c0.51-3.54,3.16-5.77,6.69-6.07c3.59-0.3,5.19,2.53,6.41,5.4
			C497.45,218.7,497.66,221.07,498.16,223.29z"/>
		<path class="st1" d="M571.02,233.47c-1.82-1.54-3.87-2.63-5.05-4.4c-2.76-4.15-2.33-12.04,0.47-16.14
			c2.72-3.97,6.91-4.19,9.98-0.51c3.92,4.71,4.07,13.5,0.02,17.96C575.23,231.72,573.26,232.24,571.02,233.47z"/>
		<path class="st1" d="M535.59,328.55c-4.3-1.57-8.3-2.83-12.11-4.57c-0.95-0.43-1.29-2.43-1.91-3.7c1.34-0.52,2.96-1.85,3.97-1.44
			c6.72,2.81,13.24,2.49,19.86-0.35c0.8-0.34,3.01,0.72,2.99,1c-0.11,1.51-0.33,3.84-1.21,4.3
			C543.53,325.65,539.64,326.94,535.59,328.55z"/>
		<path class="st1" d="M486.1,328.53c0,0.84,0.15,1.72-0.05,2.5c-0.14,0.56-0.67,1.18-1.17,1.4c-0.26,0.12-0.95-0.47-1.21-0.91
			c-0.35-0.58-0.68-1.35-0.63-2c0.13-1.7,0.43-3.39,0.8-5.05c0.04-0.19,1.3-0.33,1.34-0.2c0.51,1.35,0.89,2.75,1.3,4.14
			C486.35,328.45,486.22,328.49,486.1,328.53z"/>
		<path class="st1" d="M495.31,329.64c2.66,1.97,3.13,4.98,1.34,8.59C494.14,335.7,493.6,332.25,495.31,329.64z"/>
		<path class="st1" d="M472.71,317.95c0.24,2.73,0.49,4.7,0.52,6.67c0.01,0.48-0.63,1.19-1.11,1.38c-0.33,0.13-1.18-0.34-1.31-0.73
			C469.98,322.9,469.18,320.45,472.71,317.95z"/>
		<path class="st1" d="M479.5,308.34c2.54,2.69,2.36,5.18,0.66,8.35C478.37,313.93,476.93,311.66,479.5,308.34z"/>
		<path class="st1" d="M514.98,352.28c-0.42-1.64-1.05-3.26-1.18-4.93c-0.06-0.74,0.86-1.58,1.34-2.37
			c0.59,0.59,1.63,1.15,1.68,1.79c0.12,1.8-0.17,3.62-0.3,5.44C516,352.24,515.49,352.26,514.98,352.28z"/>
		<path class="st1" d="M539.52,347.31c0.66,1.08,1.25,1.63,1.29,2.21c0.11,1.71,0.01,3.44-0.1,5.16c0,0.06-1.58,0.14-1.6,0.02
			c-0.36-1.8-0.66-3.63-0.8-5.47C538.27,348.79,538.86,348.3,539.52,347.31z"/>
		<path class="st1" d="M457.97,297.63c0.26,0.53,0.54,0.85,0.54,1.17c0.01,2.03-0.04,4.07-0.07,6.1c-0.57-0.11-1.58-0.08-1.66-0.35
			C456.19,302.34,455.02,299.97,457.97,297.63z"/>
		<path class="st1" d="M471.99,311.85c-3.22-2.82-3.35-5.28,0-8.37C471.99,306.57,471.99,309.1,471.99,311.85z"/>
		<path class="st1" d="M549.42,342.27c0.42,0.85,0.88,1.34,0.88,1.83c-0.02,1.91-0.18,3.82-0.3,5.73c-0.55-0.21-1.46-0.28-1.59-0.66
			C547.63,346.92,546.34,344.49,549.42,342.27z"/>
		<path class="st1" d="M561.23,338.5c2.38,2.26,2.43,4.96,0.13,7.17C558.97,342.02,558.95,340.98,561.23,338.5z"/>
		<path class="st1" d="M450.84,298.37c-0.76-0.27-1.29-0.31-1.34-0.49c-0.48-1.96-0.93-3.93-1.22-5.92
			c-0.03-0.23,0.95-0.63,1.46-0.95c0.44,1.77,0.92,3.53,1.28,5.31C451.13,296.86,450.93,297.48,450.84,298.37z"/>
		<path class="st1" d="M461.9,319.14c-0.8,1.32-1.36,2.24-1.93,3.16c-0.55-1.4-1.39-2.76-1.54-4.21c-0.1-0.96,0.81-2.03,1.28-3.05
			C460.38,316.31,461.06,317.58,461.9,319.14z"/>
		<path class="st1" d="M504.35,288.24c1.75,2.81,1.22,5.34-2.36,7.69c0.44-3.09,0.77-5.49,1.11-7.88
			C503.52,288.12,503.93,288.18,504.35,288.24z"/>
		<path class="st1" d="M535.46,294.05c-2.41-1.67-2.67-3.66-1.5-5.91c0.24-0.47,1.57-0.88,1.73-0.69
			C537.42,289.61,536.69,291.71,535.46,294.05z"/>
		<path class="st1" d="M487.48,343.43c0.9-1.22,1.52-2.05,2.14-2.88c0.59,1.4,1.4,2.75,1.65,4.22c0.11,0.66-0.89,1.55-1.39,2.34
			C489.14,345.97,488.39,344.83,487.48,343.43z"/>
		<path class="st1" d="M528.28,343.47c0.14,2.1,0.34,4.21,0.38,6.31c0.01,0.36-0.7,1.04-1.07,1.03c-0.42-0.01-1.16-0.61-1.18-0.99
			c-0.12-2.08-0.06-4.18-0.06-6.26C527,343.53,527.64,343.5,528.28,343.47z"/>
		<path class="st1" d="M476.38,340.9c-2.13-2.57-2.33-4.96-0.97-7.78C477.9,335.29,478.24,337.97,476.38,340.9z"/>
		<path class="st1" d="M572.14,286.4c2.8,1.55,2.42,4.03,1.92,6.67C571.11,291.97,570.42,289.56,572.14,286.4z"/>
		<path class="st1" d="M500.83,355.46c-1.9-2.27-2.8-4.26-0.64-6.62C502.81,350.94,502.99,352.32,500.83,355.46z"/>
		<path class="st1" d="M571.43,336.3c-3.36-0.92-3.69-2.36-1.46-6.14C572.67,331.68,571.5,334.07,571.43,336.3z"/>
		<path class="st1" d="M452.25,306.64c-0.24,1.86-0.48,3.72-0.72,5.58c-0.56-0.14-1.43-0.09-1.62-0.45
			c-1.06-2.04-1.38-4.05,0.96-5.35C451.33,306.49,451.79,306.57,452.25,306.64z"/>
		<path class="st1" d="M555.89,293.79c-0.39-2.3-0.79-4.6-1.18-6.9c0.6-0.13,1.19-0.27,1.79-0.4c0.45,2.27,0.89,4.54,1.34,6.82
			C557.19,293.47,556.54,293.63,555.89,293.79z"/>
		<path class="st1" d="M442.6,286.46c-2.15-2.37-2.39-4.37-0.01-6.83C443.83,282,445.19,283.91,442.6,286.46z"/>
		<path class="st1" d="M588.37,325.67c0-1.51-0.12-3.04,0.06-4.52c0.07-0.63,0.75-1.18,1.16-1.76c0.54,0.6,1.59,1.28,1.52,1.79
			c-0.21,1.64-0.84,3.21-1.3,4.81C589.32,325.88,588.84,325.77,588.37,325.67z"/>
		<path class="st1" d="M464.7,334.53c0.17-1.81,0.32-3.63,0.57-5.43c0.01-0.04,1.69,0.09,1.69,0.17c0.04,1.83-0.04,3.66-0.1,5.49
			C466.14,334.68,465.42,334.61,464.7,334.53z"/>
		<path class="st1" d="M505.51,339.61c2.46,1.94,2.97,3.7,0.6,5.86C503.83,343.83,503.63,342.05,505.51,339.61z"/>
		<path class="st1" d="M545.92,286.74c3.6,2.08,2.96,4.27,2.47,6.33c-0.06,0.27-1.06,0.27-1.62,0.4
			C546.52,291.52,546.28,289.57,545.92,286.74z"/>
		<path class="st1" d="M578.33,325.13c0-1.93,0-3.85,0-6.42c2.71,2.31,2.4,4.3,1.11,6.39C579.07,325.11,578.7,325.12,578.33,325.13z
			"/>
		<path class="st1" d="M524.63,294.29c-2.4-2.8-1.87-4.65,0.66-6.53C527.73,290.15,525.65,291.9,524.63,294.29z"/>
		<path class="st1" d="M603.74,294.76c0.39-2,0.77-4,1.23-6.37C607.68,291.09,607.49,292.29,603.74,294.76z"/>
		<path class="st1" d="M583.22,312.72c0.21-1.92,0.42-3.83,0.63-5.75c0.42,0.05,0.84,0.1,1.26,0.15c1.02,2.03,1.51,4.03-0.55,5.82
			C584.11,312.87,583.66,312.79,583.22,312.72z"/>
		<path class="st1" d="M515.17,288.51c-0.3,1.76-0.61,3.52-1.03,5.98c-3.36-3.08-2.01-4.76-0.14-6.36
			C514.39,288.26,514.78,288.38,515.17,288.51z"/>
		<path class="st1" d="M566.18,291.89c-2.43-1.67-2.47-1.88-0.88-5.21C567.39,288.1,567.5,288.76,566.18,291.89z"/>
		<path class="st1" d="M495.29,294.02c0.45-1.52,0.9-3.04,1.36-4.57c0.57,0.22,1.66,0.57,1.65,0.63c-0.35,1.53-0.82,3.02-1.27,4.52
			C496.45,294.41,495.87,294.22,495.29,294.02z"/>
		<path class="st1" d="M425.99,256.85c-0.74,0.91-1.61,2.9-2.65,3.02c-1.08,0.12-2.91-1.32-3.4-2.55
			c-2.37-5.93-4.55-11.95-6.41-18.08c-0.38-1.25,0.61-3.36,1.54-4.54c0.35-0.45,2.89,0.17,3.47,1.05
			C422.51,241.85,424.44,248.87,425.99,256.85z"/>
		<path class="st0" d="M526.45,499.05c0.89,1.35,1.85,2.66,2.57,4.12c0.07,0.15-1.32,1.15-2.04,1.75c-0.79-1.52-1.59-3.04-2.38-4.56
			C525.22,499.92,525.84,499.48,526.45,499.05z"/>
	</g>
</g>
</svg>
