<?xml version="1.0" encoding="UTF-8"?>
<svg id="Capa_2" data-name="Capa 2" xmlns="http://www.w3.org/2000/svg" viewBox="0 0 843.63 193.72">
  <defs>
    <style>
      .cls-1 {
        fill: #000;
        font-family: Poppins-Medium, Poppins;
        font-size: 18.52px;
        font-weight: 500;
        stroke: #000;
      }

      .cls-1, .cls-2 {
        stroke-miterlimit: 10;
      }

      .cls-2 {
        fill: none;
        stroke: #f7931e;
        stroke-width: 31px;
      }
    </style>
  </defs>
  <g id="Capa_1-2" data-name="Capa 1">
    <g>
      <path class="cls-2" d="M.35,66.89c10.98-.25,75.39-3.2,93.06-1.34,6.22.66,15.26,1.63,26.44,3.89,12.1,2.45,27.2,6.5,44.05,13.47,21.94,9.08,43.16,20.2,64.81,29.99,21.65,9.8,43.72,18.28,67.37,22.11,29.37,4.75,59,1.84,87.29-6.2,28.29-8.04,55.24-21.19,79.24-36.92,12-7.86,23.7-16.48,35.97-24.04,12.27-7.56,25.11-14.05,39.39-17.67,20.94-5.3,42.44-3.88,63.84.6s42.73,11.99,63.32,18.88c15.14,5.06,38,11.57,64.62,15.13,35.57,4.76,55.37-29.82,111.18-19.93"/>
      <text class="cls-1" transform="translate(91.97 74.92) rotate(4.05) scale(1.11 1)"><tspan x="0" y="0"> </tspan></text>
      <text class="cls-1" transform="translate(97.15 75.14) rotate(7.44) scale(1.11 1)"><tspan x="0" y="0">C</tspan></text>
      <text class="cls-1" transform="translate(112.65 77.16) rotate(11.93) scale(1.11 1)"><tspan x="0" y="0">O</tspan></text>
      <text class="cls-1" transform="translate(128.18 80.47) rotate(15.74) scale(1.11 1)"><tspan x="0" y="0">N</tspan></text>
      <text class="cls-1" transform="translate(142.27 84.48) rotate(18.71) scale(1.11 1)"><tspan x="0" y="0">T</tspan></text>
      <text class="cls-1" transform="translate(153.12 88.12) rotate(21.44) scale(1.11 1)"><tspan x="0" y="0">A</tspan></text>
      <text class="cls-1" transform="translate(166.32 93.33) rotate(23.58) scale(1.11 1)"><tspan x="0" y="0">C</tspan></text>
      <text class="cls-1" transform="translate(180.8 99.68) rotate(24.7) scale(1.11 1)"><tspan x="0" y="0">T</tspan></text>
      <text class="cls-1" transform="translate(191.32 104.53) rotate(25.09) scale(1.11 1)"><tspan x="0" y="0"> </tspan></text>
      <text class="cls-1" transform="translate(196.14 106.79) rotate(25.24) scale(1.11 1)"><tspan x="0" y="0">M</tspan></text>
      <text class="cls-1" transform="translate(212.51 114.51) rotate(24.81) scale(1.11 1)"><tspan x="0" y="0">E</tspan></text>
      <text class="cls-1" transform="translate(222.25 119) rotate(24.27) scale(1.11 1)"><tspan x="0" y="0"> </tspan></text>
      <text class="cls-1" transform="translate(227.06 121.22) rotate(23.23) scale(1.11 1)"><tspan x="0" y="0">C</tspan></text>
      <text class="cls-1" transform="translate(241.53 127.46) rotate(20.95) scale(1.11 1)"><tspan x="0" y="0">O</tspan></text>
      <text class="cls-1" transform="translate(256.9 133.34) rotate(17.83) scale(1.11 1)"><tspan x="0" y="0">N</tspan></text>
      <text class="cls-1" transform="translate(271.47 137.97) rotate(14.45) scale(1.11 1)"><tspan x="0" y="0">T</tspan></text>
      <text class="cls-1" transform="translate(283.22 141.04) rotate(10.56) scale(1.11 1)"><tspan x="0" y="0">A</tspan></text>
      <text class="cls-1" transform="translate(298 143.8) rotate(5.5) scale(1.11 1)"><tspan x="0" y="0">C</tspan></text>
      <text class="cls-1" transform="translate(314.45 145.28) rotate(1.02) scale(1.11 1)"><tspan x="0" y="0">T</tspan></text>
      <text class="cls-1" transform="translate(326.41 145.41) rotate(-1.63) scale(1.11 1)"><tspan x="0" y="0"> </tspan></text>
      <text class="cls-1" transform="translate(332.27 145.42) rotate(-5.16) scale(1.11 1)"><tspan x="0" y="0">M</tspan></text>
      <text class="cls-1" transform="translate(350.85 143.58) rotate(-9.24) scale(1.11 1)"><tspan x="0" y="0">E</tspan></text>
      <text class="cls-1" transform="translate(361.79 141.74) rotate(-11.41) scale(1.11 1)"><tspan x="0" y="0"> </tspan></text>
      <text class="cls-1" transform="translate(367.2 140.65) rotate(-12.79) scale(1.11 1)"><tspan x="0" y="0"> </tspan></text>
      <text class="cls-1" transform="translate(372.81 139.49) rotate(-15.44) scale(1.11 1)"><tspan x="0" y="0">C</tspan></text>
      <text class="cls-1" transform="translate(388.56 135.12) rotate(-19.17) scale(1.11 1)"><tspan x="0" y="0">O</tspan></text>
      <text class="cls-1" transform="translate(404.2 129.64) rotate(-22.54) scale(1.11 1)"><tspan x="0" y="0">N</tspan></text>
      <text class="cls-1" transform="translate(418.22 123.77) rotate(-25.25) scale(1.11 1)"><tspan x="0" y="0">T</tspan></text>
      <text class="cls-1" transform="translate(429.04 118.69) rotate(-27.79) scale(1.11 1)"><tspan x="0" y="0">A</tspan></text>
      <text class="cls-1" transform="translate(442.07 111.83) rotate(-30.62) scale(1.11 1)"><tspan x="0" y="0">C</tspan></text>
      <text class="cls-1" transform="translate(455.67 103.73) rotate(-33.04) scale(1.11 1)"><tspan x="0" y="0">T</tspan></text>
      <text class="cls-1" transform="translate(465.3 97.42) rotate(-34.15) scale(1.11 1)"><tspan x="0" y="0"> </tspan></text>
      <text class="cls-1" transform="translate(469.69 94.45) rotate(-34.64) scale(1.11 1)"><tspan x="0" y="0">M</tspan></text>
      <text class="cls-1" transform="translate(484.55 84.17) rotate(-33.67) scale(1.11 1)"><tspan x="0" y="0">E</tspan></text>
      <text class="cls-1" transform="translate(493.48 78.26) rotate(-32.37) scale(1.11 1)"><tspan x="0" y="0"> </tspan></text>
      <text class="cls-1" transform="translate(497.92 75.44) rotate(-31.22) scale(1.11 1)"><tspan x="0" y="0"> </tspan></text>
      <text class="cls-1" transform="translate(502.26 72.62) rotate(-28.22) scale(1.11 1)"><tspan x="0" y="0">C</tspan></text>
      <text class="cls-1" transform="translate(515.94 65.2) rotate(-21.99) scale(1.11 1)"><tspan x="0" y="0">O</tspan></text>
      <text class="cls-1" transform="translate(530.48 59.28) rotate(-14.06) scale(1.11 1)"><tspan x="0" y="0">N</tspan></text>
      <text class="cls-1" transform="translate(544.51 55.82) rotate(-7.61) scale(1.11 1)"><tspan x="0" y="0">T</tspan></text>
      <text class="cls-1" transform="translate(555.65 54.25) rotate(-1.68) scale(1.11 1)"><tspan x="0" y="0">A</tspan></text>
      <text class="cls-1" transform="translate(569.64 53.81) rotate(4.25) scale(1.11 1)"><tspan x="0" y="0">C</tspan></text>
      <text class="cls-1" transform="translate(585.23 55.06) rotate(8.64) scale(1.11 1)"><tspan x="0" y="0">T</tspan></text>
      <text class="cls-1" transform="translate(596.55 56.85) rotate(10.89) scale(1.11 1)"><tspan x="0" y="0"> </tspan></text>
      <text class="cls-1" transform="translate(601.68 57.7) rotate(13.47) scale(1.11 1)"><tspan x="0" y="0">M</tspan></text>
      <text class="cls-1" transform="translate(619.17 61.98) rotate(15.84) scale(1.11 1)"><tspan x="0" y="0">E</tspan></text>
      <text class="cls-1" transform="translate(629.47 64.93) rotate(16.8) scale(1.11 1)"><tspan x="0" y="0"> </tspan></text>
      <text class="cls-1" transform="translate(634.54 66.42) rotate(17.69) scale(1.11 1)"><tspan x="0" y="0">C</tspan></text>
      <text class="cls-1" transform="translate(649.63 71.26) rotate(18.23) scale(1.11 1)"><tspan x="0" y="0">O</tspan></text>
      <text class="cls-1" transform="translate(664.87 76.33) rotate(17.38) scale(1.11 1)"><tspan x="0" y="0">N</tspan></text>
      <text class="cls-1" transform="translate(678.93 80.71) rotate(15.65) scale(1.11 1)"><tspan x="0" y="0">T</tspan></text>
      <text class="cls-1" transform="translate(690.09 83.88) rotate(13.46) scale(1.11 1)"><tspan x="0" y="0">A</tspan></text>
      <text class="cls-1" transform="translate(704.47 87.35) rotate(10.09) scale(1.11 1)"><tspan x="0" y="0">C</tspan></text>
      <text class="cls-1" transform="translate(720.67 90.15) rotate(6.16) scale(1.11 1)"><tspan x="0" y="0">T</tspan></text>
      <text class="cls-1" transform="translate(732.62 91.36) rotate(3.22) scale(1.11 1)"><tspan x="0" y="0"> </tspan></text>
      <text class="cls-1" transform="translate(738.62 91.95) rotate(-1.6) scale(1.11 1)"><tspan x="0" y="0">M</tspan></text>
      <text class="cls-1" transform="translate(757.76 91.15) rotate(-8.95) scale(1.11 1)"><tspan x="0" y="0">E</tspan></text>
      <text class="cls-1" transform="translate(769.05 89.23) rotate(-13.78) scale(1.11 1)"><tspan x="0" y="0"> </tspan></text>
      <text class="cls-1" transform="translate(774.74 87.82) rotate(-17.28) scale(1.11 1)"><tspan x="0" y="0"> </tspan></text>
      <text class="cls-1" transform="translate(780.34 86.07) rotate(-20.97) scale(1.11 1)"><tspan x="0" y="0"> </tspan></text>
    </g>
  </g>
</svg>