<?xml version="1.0" encoding="UTF-8"?>
<svg id="Capa_2" data-name="Capa 2" xmlns="http://www.w3.org/2000/svg" viewBox="0 0 23.41 24.2">
  <defs>
    <style>
      .cls-1 {
        fill: #000;
        stroke-width: 0px;
      }
    </style>
  </defs>
  <g id="Capa_1-2" data-name="Capa 1">
    <g>
      <path class="cls-1" d="M4.71,8.94c-1.43-1.81-3.23-3.37-2.33-6.03C2.94,1.24,4.09.02,5.89,0c1.91-.02,3.61.5,4.84,2.7-1.06-.02-1.83-.07-2.61-.04-.82.03-1.72-.1-2.45.22-1.35.59-1.58,1.98-.59,3.08.58.64,1.31,1.13,1.97,1.68,1.16.96,1.13,2.29-.24,3-1.23.64-2.6.94-3.85,1.37q1.17,1.38,0,3.24c-.12.18-.23.37-.34.55-1.05,1.74-.84,2.28.94,2.9.9.31,1.73.83,2.64,1.28-.7,1.52-1.83,1.3-2.76,1.16-3.13-.48-4.41-3.68-2.53-6.43.8-1.17,1.03-1.88-.29-2.61-.77-.42-.68-1.2-.08-1.7.53-.44,1.23-.67,1.89-.89.74-.25,1.5-.39,2.3-.59Z"/>
      <path class="cls-1" d="M19.26,13.65c2.01.33,3.3,1.22,4.15,3.12-.85.12-1.59.41-2.26.29-.98-.17-1.58.35-1.91,1.09-.6,1.34-1.02,2.77-1.49,4.17-.61,1.85-2.21,2.45-3.57,1.27-.29-.25-.36-.78-.54-1.19.32-.12.64-.33.97-.35,1.22-.06,1.39-1.14,1.69-1.97.87-2.41.83-2.43,2.27-4.01-2.05-1.46-2.14-2.88-.42-5.03.72-.89,1.43-1.84,1.93-2.88.7-1.43.28-2.22-1.03-2.87-.34-.17-.46-.81-.69-1.23.42-.25.88-.74,1.25-.69,2.5.32,3.92,4.01,2.45,6.25-.85,1.29-1.77,2.54-2.81,4.03Z"/>
    </g>
  </g>
</svg>