<?xml version="1.0" encoding="UTF-8"?>
<svg id="Capa_2" data-name="Capa 2" xmlns="http://www.w3.org/2000/svg" viewBox="0 0 81.75 63.01">
  <defs>
    <style>
      .cls-1 {
        fill: #000;
        stroke-width: 0px;
      }
    </style>
  </defs>
  <g id="Capa_1-2" data-name="Capa 1">
    <g>
      <path class="cls-1" d="M13.42,60.05c-1.83-.41-1.92-2.18-3.03-3.16-.69.21-1.39.43-2.09.65-.08-.14-.16-.27-.24-.41.54-.39,1.08-.79,1.77-1.29-.8-1.19-1.64-2.45-2.49-3.72.13-.1.27-.2.4-.3.3.15.68.24.89.45.62.61,1.15,1.27,1.76,1.9.46.48.73,1.3,1.86.79.11-.05.43.13.54.28.06.08-.07.33-.2.44-.22.2-.51.36-.86.6.69,1.19,1.37,2.38,2.06,3.57-.12.07-.25.14-.37.22Z"/>
      <path class="cls-1" d="M81.75,40.22c-.11.35-.25.62-.27.89-.12,1.6-.62,2.68-2.21,3.46-4.39,2.13-8.66,4.54-12.95,6.9-6.66,3.68-13.31,7.39-19.94,11.14-1.33.75-2.6.25-3.86-.03-9.06-2.05-17.91-4.88-26.55-8.5-.97-.41-1.58-1.09-1.95-1.97-1.3-3.02-2.53-6.06-3.73-9.12-1.97-4.99-3.95-9.97-5.82-14.99C2.95,23.92,1.6,19.77.16,15.66c-.36-1.02-.11-1.65.87-2.02,2.41-.89,4.79-1.86,7.2-2.72,3.83-1.36,7.66-2.72,11.53-3.95,4.12-1.31,8.3-2.45,12.45-3.69,3.48-1.04,6.95-2.12,10.42-3.19.7-.22,1.22-.09,1.54.69,1.15,2.78,2.36,5.53,3.47,8.32,1.16,2.93,2.24,5.89,3.31,8.86.98,2.74,1.9,5.5,2.85,8.24.38,1.11,1,2.2,1.12,3.34.16,1.54,1.12,1.7,2.19,2.07,6.18,2.12,12.34,4.31,18.51,6.46,1.93.67,3.87,1.3,5.81,1.95.12.04.23.13.33.19ZM14.17,49.41c13.38-6.16,26.43-13.04,40-18.49-3.59-9.87-7.19-19.77-10.76-29.6C29.09,5.79,14.61,9.21.58,14.94c4.49,11.4,9.06,22.98,13.59,34.47ZM15.57,50.07c.32.13.55.24.8.32,4.22,1.41,8.45,2.82,12.68,4.21,4.51,1.49,9.04,2.94,13.55,4.44.77.26,1.39.19,2.04-.29.66-.49,1.37-.94,2.09-1.33,5.04-2.71,10.07-5.43,15.14-8.08,4.69-2.46,9.41-4.85,14.13-7.25,1.03-.52,2.12-.93,3.45-1.51-1.53-.43-2.8-.71-4.02-1.15-5.75-2.04-11.46-4.18-17.23-6.15-1.57-.54-3.03-1.68-4.98-.57-2.52,1.43-5.34,2.28-7.99,3.49-5.44,2.49-10.85,5.04-16.27,7.58-4.43,2.07-8.86,4.16-13.38,6.29ZM14.84,50.87c.19,1.46.94,2.15,2.2,2.38.61.11,1.2.42,1.8.62,4.5,1.55,8.97,3.2,13.5,4.63,4.08,1.29,8.23,2.33,12.35,3.47.19.05.44,0,.62-.1,1.37-.73,2.74-1.46,4.08-2.25,3.55-2.06,7.04-4.23,10.64-6.21,6.18-3.4,12.18-7.16,18.74-9.77,1.06-.42,1.48-1.03,1.46-2.14-1.02.46-2.05.9-3.06,1.37-11.07,5.15-21.65,11.3-32.36,17.17-.39.22-.97.32-1.39.2-3.66-1.05-7.33-2.06-10.95-3.27-5.62-1.89-11.2-3.92-16.8-5.89-.27-.09-.54-.15-.84-.23Z"/>
      <path class="cls-1" d="M52.98,13.44c.81,2.35,1.61,4.69,2.45,7.12-1.18-.16-2.82-4.61-2.77-7.03.11-.03.21-.06.32-.09Z"/>
      <path class="cls-1" d="M54.93,13.2c.61,1.65,1.22,3.29,1.87,5.04-.91-.21-2.2-3.69-1.87-5.04Z"/>
      <path class="cls-1" d="M31.73,7.58c2.68-.84,5.57-1.78,8.47-2.65.7-.21,1.27-.08,1.62.85,2.06,5.53,4.19,11.04,6.31,16.56.79,2.07,1.59,4.14,2.42,6.19.29.72.08,1.06-.56,1.35-2.02.9-4.03,1.82-6.03,2.78-4.23,2.02-8.43,4.12-12.69,6.09-3.81,1.76-7.68,3.39-11.52,5.07-.91.4-1.8.85-2.73,1.15-.28.09-.88-.13-1-.38-1.55-3.19-3.17-6.35-4.53-9.63-1.75-4.2-3.29-8.49-4.92-12.74-.57-1.48-1.13-2.96-1.78-4.41-.3-.69-.26-1.07.44-1.33,3.53-1.3,7.05-2.67,10.6-3.92,4.18-1.47,8.38-2.85,12.59-4.22,1-.33,2.06-.48,3.32-.77ZM28.6,12.51c2.33,7.16,4.66,14.31,7.63,21.28.29-.28.53-.58.5-.84-.08-.66-.22-1.33-.45-1.96-.97-2.71-2.01-5.39-2.96-8.11-.75-2.14-1.47-4.3-2.13-6.47-.47-1.57-1.02-3.05-2.6-3.9ZM26.18,21.06c-.07-.11-.13-.22-.2-.33-.42.04-.85.02-1.25.14-1.74.51-3.46,1.07-5.2,1.59-2.12.63-4.25,1.2-6.35,1.89-.54.18-.96.69-1.44,1.05.57.77,1.24.27,1.81.11,1.42-.39,2.8-.93,4.21-1.36,2.43-.73,4.89-1.39,7.31-2.16.43-.13.75-.62,1.12-.94ZM32.11,31.74c-.64.15-1.1.19-1.51.35-1.89.78-3.77,1.6-5.65,2.41-2.42,1.04-4.85,2.08-7.26,3.14-.26.12-.46.39-.81.7,1.79.33,14.35-5.09,15.23-6.6ZM24.89,18.57l-.09-.47c-.47.01-.96-.07-1.39.05-2.7.73-5.4,1.5-8.09,2.29-1.17.34-2.32.76-3.46,1.18-.2.07-.33.35-.49.53.18.17.34.42.54.49.26.08.58.06.84-.02,2.63-.83,5.26-1.68,7.89-2.55,1.43-.47,2.84-1,4.26-1.5ZM22.84,15.91l-.04-.42c-.4-.05-.84-.23-1.2-.12-3.71,1.17-7.41,2.37-11.1,3.6-.23.08-.37.41-.55.63.23.13.46.37.69.37.42.01.85-.06,1.25-.19,2.78-.93,5.55-1.88,8.32-2.85.89-.31,1.75-.68,2.63-1.03ZM13.92,28.59c.61.75.65.84,1.42.58,3.02-1.05,6.03-2.16,9.03-3.28.26-.1.43-.48.64-.72-.33-.04-.69-.18-.98-.09-2.03.6-4.05,1.21-6.05,1.9-1.36.47-2.68,1.07-4.05,1.62ZM27.17,28.16c-.88-.3-10.02,2.8-10.68,3.56,1.17.71,9.01-1.87,10.68-3.56ZM40.95,18.23c-.76-.44-2.88.08-4.66,1.13.63.94,3.64.21,4.66-1.13ZM43.19,24.76c-1.97.36-3.69.82-5.33,1.84,1.06.6,4.74-.63,5.33-1.84ZM38.31,12.22c-.05-.14-.1-.27-.15-.41-.53.06-1.08.04-1.59.19-.84.25-1.66.59-2.48.92-.21.08-.38.28-.56.42.21.09.46.31.64.26,1.13-.3,2.25-.64,3.37-1,.27-.09.52-.25.77-.39ZM34.9,16.2c1.51.02,2.66-.41,3.75-1.27-.84-.41-2.96.27-3.75,1.27Z"/>
      <path class="cls-1" d="M69.19,39.7c-2.07,1.27-3.95,2.55-5.94,3.61-1.99,1.05-4.14,1.8-6.15,2.81-2.57,1.29-5.08,2.7-7.62,4.06-2.36,1.27-4.79,2.43-7.07,3.83-1.78,1.09-3.52,1.09-5.41.45-3.36-1.14-6.74-2.24-10.11-3.34-.67-.22-1.37-.32-2.02-.57-.35-.13-.62-.48-.93-.73.23-.26.41-.61.7-.76,3.61-1.88,7.21-3.78,10.86-5.58,4.8-2.37,9.64-4.68,14.48-6.98,1.4-.66,2.85-1.21,4.29-1.77.21-.08.51.03.77.09,4.46,1.04,8.8,2.49,13.07,4.23.35.14.67.39,1.09.64ZM52.14,47.12c-2.57-2.18-4.86-.99-7.05.6,2.49,1.66,4.86,1.31,7.05-.6ZM47.03,49.5c-1.28-.37-2.64-1.12-3.93-1.02-1.25.1-2.42,1.06-3.62,1.64,2.66.65,5.3,2.15,7.55-.62ZM42.47,52.36c-2.58-.86-5.11-2.07-7.48.27,1.46.44,2.92.89,4.39,1.32.18.05.41.08.55,0,.85-.5,1.67-1.04,2.54-1.59ZM66.74,39.86c-1.38-.46-2.63-.88-3.89-1.27-.17-.05-.4,0-.56.09-.93.52-1.84,1.06-2.86,1.64.95.36,1.83.66,2.68,1.04.63.29,1.18.23,1.77-.08.89-.47,1.8-.9,2.86-1.42ZM40.15,46.15c1.03.3,2.16,1.01,3.08.8,1.44-.32,2.75-1.25,4.09-1.91-2.76-2.23-4.85-.03-7.17,1.1ZM50.36,44.8c0,.09,0,.17.01.26,1.18.41,2.4,1.21,3.54,1.12,1.15-.09,2.22-1.06,3.38-1.67-1.08-.38-2.02-.73-2.97-1.04-.3-.1-.69-.23-.94-.12-1.03.44-2.02.96-3.02,1.45ZM41.52,47.88c-.01-.09-.02-.18-.03-.28-.91-.27-1.9-.91-2.7-.73-1.33.31-2.54,1.16-3.81,1.78.03.11.06.22.09.33.59.22,1.17.46,1.77.64.39.11.88.28,1.2.13,1.19-.56,2.32-1.24,3.48-1.87ZM55.35,42.43c.87.51,1.78,1.06,2.7,1.58.12.07.34.05.47-.02.99-.49,1.97-1.01,3.03-1.55-2.19-1-4.26-2.06-6.19,0ZM36.21,44.56c0,.1,0,.19,0,.29.82.17,1.72.65,2.44.45,1.46-.42,2.81-1.21,4.21-1.84-.01-.14-.02-.29-.03-.43-.87-.14-1.84-.59-2.6-.36-1.4.42-2.68,1.24-4,1.9ZM32.23,48.56c-.91-.34-1.83-1.04-2.54-.87-1.26.3-2.4,1.14-3.67,1.79,3.11,1.14,3.55,1.07,6.21-.92ZM30.15,50.83c2.39,1.41,4.2,1.3,6.19-.37-.68-.25-1.33-.51-1.99-.71-.36-.11-.8-.27-1.12-.16-1.01.34-1.99.8-3.07,1.25ZM56.28,40.3c-1.69-1.15-4.07-.79-5.79.86,2.16,1.36,4.06.66,5.79-.86ZM31.15,47.02c2.33,2.06,3.9-.11,5.82-.75-2.36-1.85-4-.07-5.82.75ZM45.74,43.42c.5.14,1.02.22,1.5.43.82.37,1.55.63,2.4.02.66-.47,1.46-.71,2.19-1.05-2.26-1.37-4.23-.88-6.09.6ZM50.65,37.4c2.23,1.19,4.1.15,6.24-.91-.98-.28-1.86-.84-2.57-.67-1.28.3-2.47,1.04-3.67,1.59ZM55.3,38.69c1.97,1.44,3.64.69,5.2-.7-1.21-1.07-2-.97-5.2.7ZM51.73,39.05c-2.13-1.85-3.72-.18-5.46.56,2.05,1.64,3.67.03,5.46-.56ZM41.77,41.81c2.07,1.56,3.44.11,5-.68-2.03-1.75-3.34.19-5,.68Z"/>
      <path class="cls-1" d="M28.6,12.51c1.58.85,2.12,2.33,2.6,3.9.66,2.17,1.37,4.33,2.13,6.47.96,2.71,1.99,5.4,2.96,8.11.22.63.37,1.3.45,1.96.03.26-.21.56-.5.84-2.97-6.97-5.3-14.13-7.63-21.28Z"/>
      <path class="cls-1" d="M51.73,39.05c-1.79.59-3.41,2.2-5.46.56,1.74-.74,3.33-2.41,5.46-.56Z"/>
    </g>
  </g>
</svg>