<?xml version="1.0" encoding="UTF-8"?>
<svg id="Capa_2" data-name="Capa 2" xmlns="http://www.w3.org/2000/svg" viewBox="0 0 12.45 17.77">
  <defs>
    <style>
      .cls-1 {
        fill: #000;
        stroke: #000;
        stroke-miterlimit: 10;
        stroke-width: .25px;
      }
    </style>
  </defs>
  <g id="Capa_1-2" data-name="Capa 1">
    <g>
      <path class="cls-1" d="M.13,8.88c0-2.57,0-5.15,0-7.72,0-.67.35-1.04.99-1.04,3.4,0,6.8,0,10.2,0,.66,0,1,.36,1,1.05,0,4.37,0,8.73,0,13.1,0,.35-.11.62-.35.87-.69.71-1.37,1.42-2.05,2.14-.24.25-.51.37-.85.37-2.65,0-5.29,0-7.94,0-.68,0-1.01-.36-1.01-1.06,0-2.57,0-5.13,0-7.7ZM11.87,14.43c0-.1,0-.19,0-.28,0-4.31,0-8.61,0-12.92,0-.49-.12-.62-.59-.62-3.38,0-6.76,0-10.13,0-.44,0-.57.13-.57.59,0,5.12,0,10.25,0,15.37,0,.44.14.58.56.58,2.62,0,5.25,0,7.87,0,.08,0,.15,0,.25-.01,0-.59,0-1.15,0-1.72,0-.62.36-.99.95-.99.54,0,1.07,0,1.66,0ZM9.71,16.75c.59-.62,1.17-1.22,1.75-1.83-.46,0-.94-.01-1.41,0-.2,0-.34.2-.34.43,0,.46,0,.92,0,1.39Z"/>
      <path class="cls-1" d="M6.25,8.65c1.25,0,2.49,0,3.74,0,.07,0,.16-.02.21.02.07.05.16.14.15.21,0,.08-.09.17-.16.23-.04.03-.13.01-.19.01-2.51,0-5.01,0-7.52,0-.07,0-.15.02-.19,0-.08-.06-.18-.13-.2-.22-.03-.13.06-.22.2-.24.06,0,.13,0,.2,0,1.25,0,2.51,0,3.76,0Z"/>
      <path class="cls-1" d="M6.25,10.69c1.25,0,2.49,0,3.74,0,.07,0,.15-.02.19.01.08.06.17.15.17.24,0,.07-.1.16-.18.21-.05.03-.14.01-.21.01-2.5,0-5,0-7.5,0-.07,0-.15.02-.19-.01-.07-.05-.18-.15-.17-.21,0-.08.1-.18.18-.24.04-.03.13,0,.19,0,1.26,0,2.52,0,3.78,0Z"/>
      <path class="cls-1" d="M6.25,12.73c1.25,0,2.49,0,3.74,0,.07,0,.15-.02.19.01.07.05.18.15.17.22,0,.08-.1.17-.18.24-.04.03-.11,0-.17,0-2.51,0-5.03,0-7.54,0-.06,0-.13.02-.17,0-.08-.06-.18-.14-.2-.22-.03-.13.06-.22.2-.24.06,0,.13,0,.2,0,1.25,0,2.51,0,3.76,0Z"/>
      <path class="cls-1" d="M3.86,7.07c-.4,0-.8,0-1.2,0-.46,0-.69-.38-.53-.83.25-.71.95-1.21,1.71-1.21.76,0,1.47.49,1.73,1.21.17.45-.08.83-.54.83-.39,0-.78,0-1.17,0ZM3.86,6.6c.38,0,.75,0,1.13,0,.18,0,.21-.07.15-.24-.2-.5-.72-.85-1.28-.85-.56,0-1.08.35-1.28.85-.07.17-.02.24.15.23.38,0,.75,0,1.13,0Z"/>
      <path class="cls-1" d="M3.86,2.52c.65,0,1.15.52,1.15,1.18,0,.66-.52,1.18-1.16,1.18-.64,0-1.15-.53-1.15-1.19,0-.66.51-1.18,1.16-1.18ZM3.86,4.4c.39,0,.71-.32.7-.71,0-.38-.32-.7-.69-.7-.38,0-.71.32-.71.7,0,.39.31.71.7.71Z"/>
      <path class="cls-1" d="M8.42,2.52c.54,0,1.07,0,1.61,0,.16,0,.32.01.33.23,0,.22-.15.24-.32.24-1.08,0-2.16,0-3.23,0-.17,0-.32-.03-.32-.24,0-.21.16-.23.33-.23.54,0,1.07,0,1.61,0Z"/>
      <path class="cls-1" d="M8.44,5.03c-.54,0-1.09,0-1.63,0-.17,0-.32-.03-.32-.24,0-.21.16-.24.32-.24,1.08,0,2.16,0,3.23,0,.16,0,.3.03.31.23,0,.21-.14.25-.31.25-.54,0-1.07,0-1.61,0Z"/>
      <path class="cls-1" d="M8.42,7.07c-.55,0-1.1,0-1.65,0-.21,0-.35-.17-.26-.32.04-.07.16-.14.24-.14,1.11,0,2.23,0,3.34,0,.15,0,.26.06.27.23,0,.18-.11.25-.27.25-.56,0-1.11,0-1.67,0Z"/>
      <path class="cls-1" d="M3.61,14.78c.41,0,.82,0,1.24,0,.17,0,.3.05.29.25,0,.18-.13.23-.29.23-.82,0-1.65,0-2.47,0-.17,0-.3-.05-.29-.25,0-.19.13-.23.29-.23.41,0,.82,0,1.24,0Z"/>
    </g>
  </g>
</svg>