<?xml version="1.0" encoding="UTF-8"?>
<svg id="Capa_2" data-name="Capa 2" xmlns="http://www.w3.org/2000/svg" viewBox="0 0 17.27 11.29">
  <defs>
    <style>
      .cls-1 {
        fill: #000;
        stroke-width: 0px;
      }
    </style>
  </defs>
  <g id="Capa_1-2" data-name="Capa 1">
    <g>
      <path class="cls-1" d="M16.62,0c-.17.16-.31.3-.46.43-1.09.99-2.18,1.98-3.28,2.97-1.21,1.09-2.42,2.19-3.62,3.28-.2.18-.39.36-.59.54-.24.22-.46.21-.69-.01-1.05-1.03-2.11-2.06-3.16-3.09C3.48,2.8,2.13,1.48.78.16c-.04-.04-.09-.09-.15-.16h16Z"/>
      <path class="cls-1" d="M16.66,11.29H.59c.21-.23.39-.42.57-.62,1.04-1.1,2.07-2.2,3.11-3.3.38-.41.77-.81,1.15-1.22.1-.11.16-.11.26,0,.58.57,1.16,1.13,1.74,1.69.51.5,1.27.5,1.8.02.68-.62,1.36-1.23,2.04-1.85.09-.08.15-.09.24,0,.89.92,1.78,1.83,2.67,2.74.75.76,1.5,1.53,2.24,2.29.07.07.14.15.24.25Z"/>
      <path class="cls-1" d="M17.27.59v10.08c-.07-.06-.11-.09-.15-.13-.96-.98-1.92-1.95-2.87-2.93-.71-.72-1.41-1.45-2.12-2.16-.09-.09-.08-.14,0-.22,1.09-.99,2.18-1.98,3.28-2.97.57-.51,1.13-1.02,1.7-1.54.04-.04.09-.07.16-.13Z"/>
      <path class="cls-1" d="M0,10.65V.65c.07.05.13.08.18.13,1.55,1.51,3.1,3.03,4.65,4.54.09.09.08.14,0,.23-1.04,1.09-2.07,2.19-3.1,3.28-.54.57-1.08,1.14-1.61,1.71-.03.03-.06.05-.12.11Z"/>
    </g>
  </g>
</svg>