<?xml version="1.0" encoding="UTF-8"?>
<svg id="Capa_2" data-name="Capa 2" xmlns="http://www.w3.org/2000/svg" viewBox="0 0 62.55 41.89">
  <defs>
    <style>
      .cls-1 {
        fill: #000;
        stroke-width: 0px;
      }
    </style>
  </defs>
  <g id="Capa_1-2" data-name="Capa 1">
    <g>
      <path class="cls-1" d="M60.08.06c-.06,1.12-.2,1.9-.13,2.66.71,7.07,1.47,14.13,2.17,21.19.24,2.41.37,4.83.42,7.24.05,2.34-.25,2.79-2.27,3.18-6.09,1.18-12.2,2.31-18.31,3.38-4.77.84-9.55,1.66-14.35,2.3-4.28.58-8.59.91-12.89,1.34-1.96.2-3.91.44-5.88.52-1.8.08-2.81-.6-3.37-2.41-.79-2.56-1.63-5.14-2.01-7.77C2.23,23.3,1.21,14.88.05,6.47c-.2-1.45.22-2.4,1.34-2.9,1.18-.53,2.39-1.11,3.64-1.28,5.03-.71,10.09-1.26,15.13-1.91,2.05-.27,3.57.8,4.82,2.41.72.94,1.52,1.25,2.55,1.11,3.66-.5,7.32-1,10.98-1.5,5.65-.77,11.3-1.6,16.96-2.3,1.61-.2,3.26-.03,4.61-.04ZM55.28,6.62c-.85.04-1.66.02-2.45.14-5.51.82-11.02,1.65-16.52,2.52-5.17.82-9.54-.68-12.84-5.5-.89-1.31-2.03-1.84-3.56-1.6-3.93.63-7.88,1.11-11.82,1.71-1.85.28-3.68.69-5.51,1.09-1.21.27-1.64.98-1.08,2.38.37.92.56,1.93.71,2.92.79,5.43,1.47,10.87,2.34,16.28.64,3.95,1.5,7.87,2.29,11.79.31,1.54,1.23,1.99,2.61,1.82,4.33-.54,8.68-.94,13.01-1.52,5.6-.75,11.19-1.56,16.77-2.45,4.22-.67,8.42-1.5,12.63-2.29,2.4-.45,4.79-.94,6.84-1.34-1.14-8.64-2.28-17.24-3.44-25.98ZM60.15,31.85c.21-.01.43-.03.64-.04-.07-10.1-1.71-20.12-2.35-30.01-10.32,1.26-20.31,2.48-30.22,3.68,1.54,1.85,3.85,2.12,6.05,1.88,5.01-.55,9.97-1.49,14.96-2.15,1.94-.26,3.93-.39,5.89-.23.72.06,1.92,1.06,2.03,1.76.69,4.48,1.14,8.99,1.67,13.5.45,3.87.89,7.74,1.33,11.61Z"/>
      <path class="cls-1" d="M39.12,22.39c1.54.16,2.73.37,3.9.37,1.03,0,1.5.47,1.66,1.6-2.29.8-4.51.18-6.78-.7-.13,1.13-.23,2.01-.34,2.9-.16.07-.33.15-.49.22-.43-.66-1.17-1.3-1.25-2-.26-2.44-.33-4.9-.38-7.35,0-.4.44-.8.67-1.19.28.44.75.86.79,1.31.1,1.13,0,2.27-.03,3.8.99-.88,1.71-1.56,2.46-2.19.6-.5,1.18-1.09,1.87-1.35.52-.2,1.19.06,1.79.11-.21.56-.29,1.26-.66,1.64-.9.93-1.93,1.72-3.22,2.83Z"/>
      <path class="cls-1" d="M27.37,18.83c-.75,1.47-1.27,2.81-2.04,3.95-.98,1.44-2.13,2.75-3.28,4.03-.28.31-.87.3-1.32.44-.01-.55-.21-1.21,0-1.62.61-1.22,1.37-2.35,2.08-3.51.2-.33.43-.64.73-1.1-2.27.44-4.34.89-6.42,1.23-.51.08-1.09-.19-1.64-.3.31-.39.56-1,.95-1.12,2.97-.93,5.96-1.82,8.98-2.57.59-.15,1.34.38,1.97.58Z"/>
      <path class="cls-1" d="M26.83,29.44c.04-1.02-.09-2.1.16-3.04.79-2.89,1.72-5.73,2.61-8.58.11-.34.24-.74.49-.93.33-.26.78-.35,1.18-.51.1.46.38.97.27,1.36-.72,2.75-1.51,5.48-2.28,8.21-.23.79-.41,1.62-.75,2.35-.27.56-.75.99-1.14,1.48-.18-.11-.36-.22-.54-.33Z"/>
    </g>
  </g>
</svg>