<?xml version="1.0" encoding="UTF-8"?>
<svg id="Capa_2" data-name="Capa 2" xmlns="http://www.w3.org/2000/svg" viewBox="0 0 18.57 19.39">
  <defs>
    <style>
      .cls-1 {
        fill: #000;
        stroke-width: 0px;
      }
    </style>
  </defs>
  <g id="Capa_1-2" data-name="Capa 1">
    <g>
      <g>
        <path class="cls-1" d="M9.09,19.39C3.78,19.2-.24,14.72.01,9.19.25,3.96,4.49-.25,9.73.01c5.03.25,8.96,4.61,8.83,9.92-.13,5.44-4.41,9.55-9.47,9.46ZM9.29,18.16c4.44,0,8.09-3.8,8.1-8.45.02-4.65-3.62-8.48-8.08-8.5-4.46-.02-8.15,3.81-8.15,8.46,0,4.67,3.64,8.47,8.13,8.48Z"/>
        <path class="cls-1" d="M8.05,7.22h1.66v.72c.27-.22.5-.49.79-.64.71-.37,1.44-.32,2.14.06.53.29.72.82.82,1.39.04.23.07.47.07.7,0,1.19,0,2.38,0,3.57,0,.04-.01.07-.02.12h-1.73c0-.12,0-.22,0-.32,0-1.04,0-2.08-.03-3.11-.01-.56-.27-.92-.67-1.01-.64-.15-1.17.22-1.27.89-.03.21-.05.43-.05.65,0,.96,0,1.92,0,2.9h-1.74v-5.92Z"/>
        <path class="cls-1" d="M6.88,13.15h-1.71v-5.92h1.71v5.92Z"/>
      </g>
      <path class="cls-1" d="M6.03,6.37c-.57,0-1.02-.46-1.03-1.05,0-.59.47-1.08,1.04-1.07.56,0,1.01.48,1.01,1.07,0,.59-.45,1.05-1.02,1.05Z"/>
    </g>
  </g>
</svg>