<?xml version="1.0" encoding="UTF-8"?>
<svg id="Capa_2" data-name="Capa 2" xmlns="http://www.w3.org/2000/svg" viewBox="0 0 59.38 25.5">
  <defs>
    <style>
      .cls-1 {
        fill: #f7931e;
        stroke-width: 0px;
      }
    </style>
  </defs>
  <g id="Capa_1-2" data-name="Capa 1">
    <path class="cls-1" d="M.72,6.79c4.69-.37,9.25-1.73,13.91-2.34s9.59-.97,14.35-1.74,9.73-1.38,14.73-1.16c2.4.11,4.78.45,7.17.65s4.99.29,7.45.8v-1.45c-3.8,1.5-8.07,1.76-12.08,2.38-4.62.72-9.26,1.29-13.85,2.22s-8.88,2.24-13.33,3.36c-1.95.49-3.92,1.02-5.92,1.24-1.49.16-3.12.22-4.44,1.01-.68.41-.33,1.32.38,1.4,2.92.32,5.85.36,8.78.35,2.28,0,4.88-.69,7.07.05l-.33-1.25c-2.55,2.12-5.34,3.92-8.15,5.68-2.48,1.55-5.12,2.88-7.33,4.81-.31.27-.27.79,0,1.06.97.98,2.26,1.18,3.58,1.3,1.91.18,3.82.34,5.74.33.96,0,.97-1.51,0-1.5-1.61,0-3.2-.12-4.8-.26-1.17-.1-2.58-.04-3.46-.94v1.06c2.34-2.04,5.2-3.42,7.81-5.07s5.26-3.41,7.67-5.42c.46-.39.16-1.09-.33-1.25-2.24-.76-4.68-.12-6.98-.1-3.1.02-6.19,0-9.27-.35l.38,1.4c1.37-.82,3.2-.71,4.74-.93,2.08-.3,4.15-.87,6.18-1.4,4.29-1.11,8.53-2.37,12.88-3.22s8.91-1.42,13.37-2.12c4.01-.63,8.28-.88,12.08-2.38.62-.24.8-1.28,0-1.45-2.36-.48-4.75-.62-7.15-.8s-4.75-.53-7.15-.67c-4.84-.28-9.66.08-14.43.93s-9.94,1.24-14.91,1.87S5.56,4.91.72,5.29c-.96.07-.96,1.58,0,1.5h0Z"/>
  </g>
</svg>