<?xml version="1.0" encoding="UTF-8"?>
<svg id="Capa_2" data-name="Capa 2" xmlns="http://www.w3.org/2000/svg" viewBox="0 0 42.12 38.79">
  <defs>
    <style>
      .cls-1 {
        fill: #000;
        stroke-width: 0px;
      }
    </style>
  </defs>
  <g id="Capa_1-2" data-name="Capa 1">
    <g>
      <path class="cls-1" d="M13.95,8.89c.15.01.54-.04.84.1.33.15.8.48.81.74,0,.31-.36.76-.67.92-.43.23-.96.27-1.46.34-2.53.37-3.06,4.11-2.03,5.91.58,1.02,1.64.71,2.59.22.44-.23,1.03-.15,1.55-.21-.15.56-.15,1.25-.46,1.67-1.4,1.87-4.65,1.41-5.58-.75-.75-1.74-.98-3.52-.44-5.39.73-2.5,2.12-3.59,4.84-3.57Z"/>
      <g>
        <path class="cls-1" d="M9.61,30.27c-1.12-.08-2.17-.18-3.23-.24-2.92-.16-4.55-1.27-5.05-4.2C.68,22.02.26,18.14.03,14.26c-.13-2.13.24-4.31.58-6.43C1.11,4.7,3.92,2.38,7.55,1.69,16.52-.03,25.57-.21,34.64.15c1.49.06,2.97.56,4.44.9,1.9.44,2.82,1.79,2.92,3.73.32,6.38.04,12.72-1.56,18.94-1.01,3.94-2.61,5.36-6.92,5.81-4.32.45-8.65.7-12.98,1-1.91.13-3.62.47-4.8,2.38-1.12,1.81-2.48,3.46-3.82,5.11-.34.42-.97.76-1.48.77-.26,0-.75-.79-.77-1.23-.06-1.99.01-3.98.03-5.97,0-.41-.05-.82-.09-1.32ZM11.22,35.84c.64-.83,1.38-1.68,1.99-2.61,1.84-2.82,4.16-4.29,7.65-4.38,4.57-.11,9.12-1.22,13.7-1.33,2.9-.07,3.64-1.58,4.18-3.96,1.4-6.18,2.08-12.42,1.47-18.76-.05-.55-.55-1.26-1.04-1.53-.87-.48-1.88-.92-2.84-.95-4.1-.12-8.21-.33-12.29-.04-6.73.47-13.58.15-20.02,2.98-1.19.52-1.88,1.05-1.94,2.42-.11,2.68-.41,5.36-.41,8.05-.01,3.96.41,7.87,1.87,11.6.35.9.83,1.38,1.78,1.36,1.42-.03,2.83.06,4.25,0,1.15-.05,1.71.33,1.67,1.6-.05,1.83-.01,3.66-.01,5.56Z"/>
        <path class="cls-1" d="M28.73,19.63c-.65-.33-1.37-.57-1.92-1.03-.25-.21-.3-.88-.2-1.27.05-.21.6-.34.94-.42.44-.1.95,0,1.34-.18.54-.27,1.14-.65,1.39-1.15.11-.22-.52-.93-.91-1.31-.36-.35-.88-.52-1.26-.86-1.51-1.35-1.38-3.34.3-4.44.59-.39,1.24-.81,1.9-.92.46-.08,1,.36,1.5.56-.24.46-.4,1-.74,1.35-.49.52-1.88.19-1.49,1.48.2.66.84,1.23,1.38,1.73,1.09,1.02,2.05,2.13,1.66,3.76-.4,1.64-1.8,2.46-3.9,2.7Z"/>
        <path class="cls-1" d="M20.04,11.12c.88.79,1.45,1.3,2.02,1.8,1.31,1.15,1.79,3.31,1.04,4.69-.67,1.24-2.42,2.04-3.64,1.46-.73-.35-1.34-1.05-1.86-1.71-.2-.25,0-.83,0-1.26.42.05.86.04,1.25.18.32.11.58.55.88.56.47.02,1.11-.04,1.37-.35.22-.26.18-1.03-.04-1.38-.44-.69-1.04-1.28-1.65-1.84-.99-.9-1.04-1.98-.68-3.16.4-1.31,1.39-2.05,2.61-1.99.85.04,1.67.7,2.5,1.08l-.13.6c-.55.17-1.12.33-1.66.53-.55.2-1.09.44-1.99.8Z"/>
      </g>
    </g>
  </g>
</svg>