<?xml version="1.0" encoding="UTF-8"?>
<svg id="Capa_2" data-name="Capa 2" xmlns="http://www.w3.org/2000/svg" viewBox="0 0 15.98 23.71">
  <defs>
    <style>
      .cls-1 {
        fill: #f7931e;
        stroke-width: 0px;
      }
    </style>
  </defs>
  <g id="Capa_1-2" data-name="Capa 1">
    <path class="cls-1" d="M1.4,2.57c1.13,1.14,2.19,2.34,3.44,3.34,1.17.94,2.38,1.84,3.37,2.99s2.01,2.27,2.93,3.46c.32.42.66.81,1.01,1.21.26.29.55.93.82,1.15-.13-.11.26-.22.05-.19-.06,0-.4.33-.46.37-.4.28-.84.52-1.27.75-.98.54-1.95,1.12-2.96,1.61-1.35.66-2.7,1.3-4.06,1.94-.84.4-1.85,1.41-2.78,1.51C.69,20.8,0,21.34,0,22.21c0,.74.7,1.59,1.5,1.5,1.48-.16,2.58-1,3.84-1.69,1.45-.79,3.02-1.44,4.51-2.17,1.15-.56,2.27-1.21,3.38-1.85,1.02-.58,2.32-1.34,2.65-2.55.42-1.5-.59-2.85-1.52-3.91-1.02-1.16-2.01-2.35-3.02-3.52-1.17-1.36-2.29-2.57-3.7-3.69C6.15,3.14,4.87,1.81,3.52.45S.04,1.19,1.4,2.57h0Z"/>
  </g>
</svg>