<?xml version="1.0" encoding="UTF-8"?>
<svg id="Capa_2" data-name="Capa 2" xmlns="http://www.w3.org/2000/svg" viewBox="0 0 52.77 66.87">
  <defs>
    <style>
      .cls-1 {
        fill: #000;
        stroke-width: 0px;
      }
    </style>
  </defs>
  <g id="Capa_1-2" data-name="Capa 1">
    <g>
      <path class="cls-1" d="M42.44,30.85c-3.06-.42-6-.83-8.94-1.21-3.92-.5-6.4-2.96-8.1-6.4-1.26-2.54-2.59-5.07-3.54-7.74-.87-2.44-1.36-5.04-1.85-7.61-.16-.84.09-1.81.29-2.69.08-.36.46-.77.81-.95,2.43-1.31,4.84-2.64,7.34-3.8.79-.36,1.79-.27,2.7-.28,2.36-.02,4.86-.47,7.05.16,2.45.72,4.79,2.19,6.85,3.78,2.51,1.95,4.66,4.4,6.12,7.36,2.09,4.23,2.18,8.58.1,12.89-1.21,2.51-3.22,4.24-5.85,5.11-.5.16-1,.32-1.25.41-.14,6.48-2.39,11.86-6.72,16.4-4.5,4.73-9.98,6.25-16.14,5.56-1.26,3.06-3.6,5.11-5.96,7.02-2.73,2.21-5.59,4.29-8.58,6.09-1.68,1.01-3.72,1.36-5.62,1.91-.32.09-.76-.27-1.14-.42.27-.29.49-.71.81-.84,4.97-1.89,9.49-4.59,13.48-8.2,1.92-1.74,3.64-3.73,5.32-5.47-1.63-.85-3.24-1.45-4.58-2.45-2.09-1.55-2.55-3.99-1.33-5.68,1.45-2.01,4.29-2.47,6.4-1.13,1.81,1.15,2.68,2.92,3.08,4.93.13.64-.41,1.44-.65,2.17,9.55,2,19-7.28,19.92-18.93ZM33.4,27.62c.34.18.53.28.72.36.16.07.33.14.5.17,3.01.65,6.03.67,9.03-.14,2.43-.66,4.62-1.69,5.9-4.25,1.93-3.87,1.65-7.66.07-11.44-.14-.34-.73-.72-1.08-.68-4.56.49-9.12,1.06-13.72,1.61,2.2,4.91,1.35,9.71-1.41,14.36ZM34.62,21.67c-.1-1.87.03-4.05-.37-6.13-1.13-5.9-5.38-9.58-11.14-9.99-1.07-.08-1.67.26-1.41,1.46.6,2.77,1.07,5.59,1.89,8.29,1.33,4.37,3.49,8.29,6.65,11.56.86.89,1.46.89,2.07-.24.79-1.48,1.43-3.04,2.31-4.94ZM48.14,10.35c-3.24-5.91-12.02-11.43-22.2-6.4,3.63,1.09,6.39,3.14,7.98,6.58.53,1.14,1.4,1.46,2.46,1.33,3.87-.47,7.74-.99,11.75-1.51ZM18.8,49.51c1.68.4,1.97.37,2.26-.48.58-1.7-.09-3.13-1.05-4.4-.86-1.13-2.13-1.55-3.4-1.07-.77.29-1.7,1.09-1.87,1.83-.17.73.28,1.93.86,2.44.89.78,2.12,1.14,3.21,1.68Z"/>
      <path class="cls-1" d="M45.76,20.8c-.26.57-.44,1.2-.8,1.68-.31.41-.84.63-1.28.94-.31-.52-.77-1-.88-1.56-.1-.53.21-1.14.27-1.72.11-1.1.17-2.2.27-3.29.04-.45.14-.89.21-1.33.55.14,1.3.1,1.62.47.96,1.06.95,2.45.7,3.84-.06.31-.15.62-.23.93.04.02.08.04.12.06Z"/>
    </g>
  </g>
</svg>