<?xml version="1.0" encoding="UTF-8"?>
<svg id="Capa_2" data-name="Capa 2" xmlns="http://www.w3.org/2000/svg" viewBox="0 0 15.45 22.87">
  <defs>
    <style>
      .cls-1 {
        fill: #f7931e;
        stroke-width: 0px;
      }
    </style>
  </defs>
  <g id="Capa_1-2" data-name="Capa 1">
    <path class="cls-1" d="M11.97.45c-1.25,1.26-2.43,2.52-3.82,3.62s-2.47,2.2-3.57,3.52c-.96,1.14-1.93,2.29-2.92,3.41-.94,1.06-1.98,2.39-1.56,3.9.32,1.15,1.51,1.87,2.47,2.43,1.04.6,2.11,1.22,3.19,1.75,1.45.72,2.94,1.36,4.37,2.1,1.28.66,2.35,1.53,3.83,1.69.81.09,1.5-.75,1.5-1.5,0-.88-.69-1.41-1.5-1.5-.87-.09-1.84-1.07-2.63-1.44-1.3-.61-2.6-1.22-3.89-1.86-.97-.47-1.89-1.03-2.83-1.55-.41-.22-.83-.45-1.22-.72-.05-.04-.29-.25-.37-.28-.42-.16.24-.11,0,.17.28-.32.48-.74.77-1.07.34-.38.66-.77.98-1.17.88-1.13,1.86-2.22,2.8-3.3s2.11-1.96,3.23-2.87c1.2-.97,2.22-2.11,3.3-3.21,1.36-1.38-.76-3.5-2.12-2.12h0Z"/>
  </g>
</svg>