<?xml version="1.0" encoding="UTF-8"?>
<svg id="Capa_2" data-name="Capa 2" xmlns="http://www.w3.org/2000/svg" viewBox="0 0 119.4 31.86">
  <defs>
    <style>
      .cls-1 {
        fill: #f7931e;
        stroke-width: 0px;
      }
    </style>
  </defs>
  <g id="Capa_1-2" data-name="Capa 1">
    <path class="cls-1" d="M38.85,9.13c2.34-.26,4.62-.82,6.98-1.05s4.62-.4,6.93-.55c4.75-.32,9.52-.16,14.28-.12s9.71,0,14.56,0c2.3,0,4.59-.11,6.89-.12s4.68.28,6.99.5,4.47.91,6.71,1.39,4.45,1.26,6.61,2.15c1.92.8,4.08,1.48,5.82,2.65,1.88,1.26,3.85,2.75,3.14,5.29-.53,1.9-2.21,2.85-3.85,3.69-1.89.96-3.77,1.81-5.79,2.49s-4.09,1.56-6.16,2.23c-2.23.72-4.57,1.06-6.86,1.53-4.63.95-9.44.86-14.15,1.01s-9.83.01-14.75,0c-9.55-.04-19.15-.36-28.67-1-4.76-.32-9.52-.73-14.29-1.02-2.33-.14-4.62-.44-6.94-.69s-4.49-.33-6.73-.85c-2.11-.49-4.2-1.25-5.87-2.67-1.56-1.33-2.03-3.23-2.1-5.21-.03-.81-.22-1.94.05-2.71.37-1.05,2.1-1.47,3-1.97,2-1.1,4.18-1.98,6.3-2.81,1.99-.78,4.02-1.43,5.98-2.28,2.21-.96,4.43-1.89,6.69-2.71,4.43-1.6,8.98-2.6,13.65-3.18s9.3-1.08,13.95-1.42,9.45-.08,14.18.4c2.31.23,4.63.5,6.94.74.96.1.95-1.4,0-1.5C67.22.81,62.11.1,56.98,0s-10.2.6-15.26,1.12-9.65,1.05-14.32,2.38-9.2,3.54-13.85,5.24c-2.18.8-4.32,1.66-6.45,2.57-1.1.47-2.18.93-3.22,1.5-.85.47-1.86.77-2.63,1.36C-.3,15.34-.01,17.44.09,19.16s.5,3.53,1.6,4.94c2.54,3.24,7.41,4.29,11.28,4.66,4.93.47,9.85.89,14.8,1.25,10.34.75,20.67,1.28,31.03,1.6s20.87.39,31.25-.22c2.49-.15,4.87-.61,7.31-1.11s4.63-.96,6.91-1.82c4.02-1.51,8.22-2.72,11.88-5.02,3-1.88,4.67-6.15,1.63-8.86s-7.44-4.37-11.41-5.77c-2.3-.81-4.72-1.29-7.09-1.85s-4.7-.66-7.1-.92-4.97-.21-7.48-.14-5.05.02-7.57.02c-10.29,0-20.57-.34-30.83.62-1.18.11-2.37.22-3.54.38-1.32.18-2.59.57-3.91.72-.95.11-.96,1.61,0,1.5h0Z"/>
  </g>
</svg>