<?xml version="1.0" encoding="UTF-8"?>
<svg id="Capa_2" data-name="Capa 2" xmlns="http://www.w3.org/2000/svg" viewBox="0 0 19.14 41.99">
  <defs>
    <style>
      .cls-1 {
        fill: #f7931e;
        stroke-width: 0px;
      }
    </style>
  </defs>
  <g id="Capa_1-2" data-name="Capa 1">
    <path class="cls-1" d="M1.87,3.65c1.9-.41,3.95-1.27,5.72-.05.61.42,1.02,1,1.48,1.56.64.79,1.23,1.29,1.48,2.31.75,3.11-.65,6.62,1.13,9.52.89,1.45,2.25,1.67,3.73,2.19.33.11.48.27.74.43-.2-.12.31-.42-.07-.25-.14.06-.29.22-.42.31-.66.48-1.32.96-1.99,1.44-1.4,1-2.88,2.24-3.01,4.08-.06.88.21,1.75.39,2.6.25,1.16.45,2.34.74,3.5s.55,2.08-.02,3.16c-.43.82-1.02,1.53-1.69,2.16-1.43,1.33-3.24,2.09-5.13,2.46s-1.09,3.27.8,2.89c3.78-.75,7.47-3.15,9-6.8.96-2.29-.13-4.91-.6-7.21-.2-.96-.83-2.31-.19-3.18.57-.77,1.53-1.26,2.29-1.82,1.34-.99,3.31-2.05,2.81-4.05s-2.43-2.34-4.13-2.98c-1.34-.5-1.26-2.58-1.22-3.78.06-2.22.27-4.57-.67-6.66-.45-1-1.27-1.72-1.94-2.56s-1.37-1.56-2.3-2.1C6.29-.64,3.71.18,1.08.75-.81,1.17-.01,4.06,1.87,3.65h0Z"/>
  </g>
</svg>