<?xml version="1.0" encoding="UTF-8"?>
<svg id="Capa_2" data-name="Capa 2" xmlns="http://www.w3.org/2000/svg" viewBox="0 0 27.02 48.88">
  <defs>
    <style>
      .cls-1 {
        fill: #f7931e;
        stroke-width: 0px;
      }
    </style>
  </defs>
  <g id="Capa_1-2" data-name="Capa 1">
    <path class="cls-1" d="M26.54,6.51c-1.42-1.27-3.04-1.4-4.8-1.82-2.05-.49-3.95-1.32-5.85-2.22-1.58-.75-3.2-1.34-4.87-1.82-1.35-.39-2.93-.88-4.33-.51-.47.12-.96.55-1.05,1.05-.24,1.3-.03,2.33.46,3.54s.81,2.57,1.26,3.85c.91,2.63,2.79,4.78,3.3,7.54.12.62.2,1.25.37,1.86.07.25.32,1.48.58,1.56.06.17.08.13.07-.14.09-.26.05-.31-.12-.14-.19,0-.56.22-.79.26-.56.08-1.14.02-1.7,0-2.64-.11-5.35-.37-7.97.08-.84.14-1.19,1.12-1.05,1.85.17.88.69,1.5,1.35,2.06.83.7,1.62,1.43,2.39,2.2,1.62,1.61,3.34,3.08,5.02,4.62.6.56,1.23,1.03,1.91,1.5.43.3,1.28.74,1.41,1.3.15.66-1.59,2.3-2.1,2.86-1.1,1.21-2.13,2.45-3.15,3.72-.67.83-1.26,1.68-1.85,2.56-.44.65-1.04,1.17-1.52,1.8-.9,1.18-1.08,2.66.11,3.72.98.87,2.46,1.01,3.71,1.08,1.39.08,2.78-.05,4.17-.12,2.42-.13,4.87-.02,7.3-.02,1.93,0,1.93-3,0-3-3.25,0-6.49.06-9.74.16-.62.02-1.24.02-1.86-.02-.39-.03-1.12-.32-1.46-.25-.03,0-.38-.14-.04.25s-.14.19.12.12c.03,0,.4-.47.34-.41.52-.59,1.03-1.12,1.46-1.78,1.78-2.76,4.15-4.98,6.14-7.57.81-1.05,1.58-2.24,1.31-3.63-.3-1.55-1.62-2.51-2.84-3.35-1.63-1.12-3.18-2.55-4.6-3.92-.91-.87-1.77-1.79-2.67-2.66-.54-.51-1.88-1.28-2.02-2.01l-1.05,1.85c2.8-.48,5.68.17,8.5.05,2.38-.1,5.06-1.58,3.93-4.27-.52-1.22-.61-2.5-.92-3.78-.36-1.48-1.13-2.78-1.88-4.09s-1.31-2.75-1.77-4.26c-.21-.68-.41-1.36-.67-2.03s-.66-1.37-.53-2.13l-1.05,1.05c.88-.23,2.38.4,3.3.68,1.52.46,2.96,1.04,4.39,1.74,1.63.79,3.3,1.43,5.04,1.94,1.3.38,3.17.32,4.21,1.25,1.43,1.29,3.56-.83,2.12-2.12h0Z"/>
  </g>
</svg>