<?xml version="1.0" encoding="UTF-8"?>
<svg id="Capa_2" data-name="Capa 2" xmlns="http://www.w3.org/2000/svg" viewBox="0 0 38.27 26.91">
  <defs>
    <style>
      .cls-1 {
        fill: #f7931e;
        stroke-width: 0px;
      }
    </style>
  </defs>
  <g id="Capa_1-2" data-name="Capa 1">
    <g>
      <path class="cls-1" d="M7.07.19c-.62.41-1.32.64-1.89,1.12s-1.02,1.1-1.42,1.73c-.83,1.3-1.74,2.57-2.31,4.01-.46,1.16-.6,2.43-1,3.62-.31.93-.77,2.26-.14,3.16.35.5.98.73,1.54.4.49-.29.75-1.04.4-1.54-.1-.14.02,0,0,.08-.02.14,0-.19,0-.18.01-.13.04-.23.08-.43.11-.43.25-.86.4-1.28.36-1.06.44-2.21.87-3.24.48-1.15,1.26-2.17,1.92-3.23.31-.49.61-1.02,1.07-1.39s1.09-.56,1.59-.89c1.21-.79.08-2.74-1.14-1.94h0Z"/>
      <g>
        <path class="cls-1" d="M7.49,8.2c-.48,1.97-1.42,3.78-1.95,5.73l2.17.6c.46-1.85.84-3.71,1.47-5.51.26-.76.59-1.51.83-2.29.06-.2.11-.41.17-.61.04-.12.07-.24.12-.36-.03.08-.02.07.03-.05.16-.23.03-.15-.37.22l-1.27-.52c1.06,1.52,1.5,3.24,1.55,5.08s0,3.94-.48,5.77c-.2.76.55,1.71,1.38,1.38s.99-1.21,1.29-1.94c.4-1.01.8-2.02,1.19-3.04.19-.47.37-.95.56-1.42.08-.19.16-.39.24-.58.09-.21-.09.21,0,0,.03-.06.05-.12.08-.18.68-1.49,1.2-3.11,2.15-4.46.35-.5.09-1.25-.4-1.54-.56-.33-1.19-.09-1.54.4-.94,1.34-1.45,2.93-2.13,4.4-.34.74-.63,1.5-.93,2.26-.39.99-.77,1.97-1.16,2.96-.15.38-.31.77-.46,1.15-.03.07-.13.3,0-.02,0,0-.06.15-.06.15,0,0-.05.09-.05.11-.02.09-.27.3.13-.14l.5-.29h0c.46.46.92.92,1.38,1.39.55-2.07.64-4.42.55-6.56s-.62-4.24-1.85-6.02c-.26-.38-.79-.7-1.27-.52-.8.31-1.11.98-1.36,1.76-.22.7-.45,1.38-.71,2.06-.76,2.07-1.23,4.2-1.77,6.34-.35,1.4,1.79,2,2.17.6.53-1.95,1.48-3.76,1.95-5.73.34-1.41-1.83-2.01-2.17-.6h0Z"/>
        <path class="cls-1" d="M16.25,14.05c.42.1.84.14,1.26.17.2.01.21.02.43.07s.43.1.65.16c.17.04.33.07.5.12.09.02.19.05.27.08-.1-.04-.1-.04-.01.01.39.26.8.4,1.26.46.37.05.8-.25.97-.56.42-.75.11-1.5-.25-2.19-.15-.29-.33-.55-.49-.83-.17-.3-.34-.6-.58-.85-.45-.48-1.17-.81-1.81-.92-.84-.15-1.62.13-2.22.73-.91.91-1.4,2.28-1.83,3.46-.25.7-.14,1.47.06,2.17s.49,1.45,1.02,1.96c.47.45,1.08.71,1.72.81.33.05.67.08,1,.1.15,0,.29.02.44.03.08,0,.52.06.21.01.58.09,1.24-.14,1.38-.79.12-.53-.16-1.29-.79-1.38-.45-.07-.89-.1-1.34-.13-.09,0-.18-.01-.27-.02-.11,0-.25-.03-.05,0-.18-.03-.36-.07-.54-.12-.04-.01-.08-.03-.12-.04.03.01.16.1.08.03-.03-.02-.24-.17-.13-.07s-.07-.09-.11-.12c-.09-.08.03.03.04.05-.03-.06-.07-.11-.1-.17-.15-.28-.14-.29-.24-.57-.08-.25-.15-.51-.19-.78.02.15,0-.12,0-.17,0,.17.01-.03.04-.11.08-.25.19-.49.28-.74.14-.37.33-.75.55-1.16.09-.17.21-.32.3-.49.06-.11-.02.02-.03.04.03-.04.06-.07.09-.11.07-.08.15-.16.23-.23l-.04.03c-.05.04-.06.04,0,0,0-.02.22-.11.06-.04-.14.06.13-.02-.04,0,0,0,.2.05.28.07.06.02.12.04.18.07-.1-.04-.06-.03.01,0,.04.03.3.17.19.09s0,0,.01.02c.04.04.08.08.12.12-.15-.16.01.05.06.13.07.12.13.24.2.36.15.26.32.51.46.78.05.09.09.19.13.28,0-.02-.06-.17-.03-.05.02.07.02.06,0-.02-.02-.14,0-.27.08-.4l.97-.56s.23,0,.23.04c0,0-.2-.11-.22-.12-.18-.1-.36-.19-.55-.27-.32-.13-.67-.19-1-.27-.42-.11-.84-.19-1.28-.24-.19-.02-.38-.03-.57-.05-.21-.02.04.01-.08-.01-.09-.02-.19-.04-.28-.06-.57-.13-1.24.18-1.38.79-.13.57.17,1.24.79,1.38h0Z"/>
        <path class="cls-1" d="M27.03,12.6s-.21.18-.16.14c.07-.05-.15.11-.17.12-.21.15-.41.3-.6.46-.35.29-.67.62-.97.96-.6.67-1.18,1.36-1.74,2.07-.99,1.25-2.21,2.25-2.76,3.79-.2.55.22,1.26.79,1.38.63.14,1.17-.19,1.38-.79.12-.32-.05.09.03-.08.04-.08.08-.16.12-.24.08-.16.18-.31.28-.45.04-.06.08-.12.12-.17-.11.15.03-.04.05-.06.11-.14.23-.27.35-.4.47-.53.96-1.04,1.4-1.6.52-.66,1.06-1.29,1.62-1.91.29-.32.6-.63.93-.91-.09.07.02-.02.05-.04.08-.06.16-.11.24-.17.22-.16.44-.33.64-.51.44-.39.43-1.19,0-1.59-.47-.43-1.12-.42-1.59,0h0Z"/>
        <path class="cls-1" d="M23.87,14.82l.08.03-.5-.29c-.05-.05-.16-.43-.14-.21,0,0,.06.27.05.22.01.07.03.35.04.5.02.38.04.75.03,1.13-.02.78-.17,1.56-.17,2.34,0,.42.06.84.25,1.23.16.32.44.59.69.84.12.12.04,0-.02-.04.05.03.09.13.13.18.11.15.23.31.35.45.25.3.62.57,1.01.64.58.1,1.24-.15,1.38-.79.12-.55-.17-1.28-.79-1.38-.14-.02,0,0,.05.04.19.1.05.04,0-.03-.01-.02-.14-.17-.06-.07s-.04-.05-.05-.07c-.2-.28-.42-.53-.65-.77-.04-.04-.1-.16-.08-.08.02.05.07.24.04.03.02.11,0,.1,0,0,0-.07,0-.15,0-.22,0-.37.08-.74.1-1.11.06-.77.08-1.53.04-2.3-.05-.96-.14-2.05-1.19-2.42-.56-.19-1.26.22-1.38.79-.14.63.19,1.18.79,1.38h0Z"/>
        <path class="cls-1" d="M31.37,11.18c-.61,2.43-1.16,4.89-1.9,7.29-.33,1.06-.52,2.07-.43,3.18.05.64.43,1.05.94,1.39.34.23.95.42,1.2.69.99,1.06,2.58-.53,1.59-1.59-.33-.35-.75-.52-1.16-.75-.06-.03-.44-.3-.5-.3.11.49.17.59.17.31.02-.11.03-.23.03-.34,0-.22-.06-.45-.04-.67.01-.2.11-.42.16-.61.14-.51.31-1.01.46-1.52.63-2.13,1.11-4.32,1.65-6.48.35-1.4-1.82-2-2.17-.6h0Z"/>
        <path class="cls-1" d="M29.09,16.71c.05.02.1.03.15.05.11.05.1.04-.05-.02.09.02.2.09.29.14.17.08.34.16.51.24.39.17.77.34,1.16.52s.76.35,1.13.55c.17.09.34.19.52.29.08.04.16.08.23.12.04.02.08.04.11.06-.14-.12-.16-.13-.08-.05.41.42,1.18.45,1.59,0s.44-1.14,0-1.59c-.31-.32-.77-.53-1.16-.74s-.8-.4-1.2-.58-.83-.37-1.24-.56c-.45-.21-.89-.44-1.36-.6-.56-.19-1.25.22-1.38.79-.14.62.19,1.18.79,1.38h0Z"/>
        <path class="cls-1" d="M36.07,10.15c-.25,1.26-.12,2.53-.12,3.8,0,1.4.03,2.8-.23,4.18s-.54,2.58-1.04,3.83c-.4.99-.78,2.34-1.62,3.07-1.09.96.5,2.54,1.59,1.59.91-.79,1.39-2.09,1.83-3.17.56-1.37,1.01-2.7,1.3-4.15s.39-2.85.41-4.32c.02-1.37-.21-2.88.05-4.23.28-1.41-1.89-2.02-2.17-.6h0Z"/>
      </g>
    </g>
  </g>
</svg>