<?xml version="1.0" encoding="UTF-8"?>
<svg id="Capa_2" data-name="Capa 2" xmlns="http://www.w3.org/2000/svg" viewBox="0 0 20.99 28.5">
  <defs>
    <style>
      .cls-1 {
        fill: #000;
        stroke-width: 0px;
      }
    </style>
  </defs>
  <g id="Capa_1-2" data-name="Capa 1">
    <g>
      <path class="cls-1" d="M20.67,21.48c-2.18-.12-4.36-.24-6.69-.37-1.05,2.35-.28,5.53-3.66,7.39-2.38-2.76-.21-5.53-.98-7.92-1.92-.95-3.7-1.84-5.49-2.72.16-.34.32-.68.48-1.02,1.31.14,2.64.2,3.92.45,1.65.32,2.35-.14,2.56-1.47.27-1.68.63-3.36,1.18-4.98.18-.52,1.09-.85,1.66-1.26.31.53.91,1.08.89,1.59-.06,2.18-.3,4.35-.48,6.71,2.2.81,4.57,1.69,6.94,2.56-.11.35-.22.7-.32,1.05Z"/>
      <path class="cls-1" d="M3.94,14.21c-1.86-1.99-.33-4.11-.77-6.16-1.05-.32-2.11-.65-3.16-.98.03-.22.06-.45.08-.67,1.03-.01,2.06-.02,3.36-.04.13-2.03.26-4.19.39-6.35.26,0,.51-.01.77-.02.23.42.61.83.68,1.25.19,1.21.23,2.43.39,3.64.12.94-.31,2.11,1.55,2.45.18.03.4.51.41.77,0,.14-.4.32-.65.35-.46.05-.95,0-1.6-.01-.26,1.94-.52,3.89-.78,5.83-.22-.02-.44-.04-.66-.06Z"/>
    </g>
  </g>
</svg>